<svg width="742" height="271" viewBox="0 0 742 271" fill="none" xmlns="http://www.w3.org/2000/svg">
<path d="M120.32 18.0155L68.64 151.296C67.5067 154.242 67.62 156.622 68.98 158.436C70.34 160.022 72.38 160.816 75.1 160.816H207.36V196.856L180.16 202.636H26.48C20.1333 202.636 14.6933 201.049 10.16 197.876C5.62667 194.476 2.56667 190.056 0.98 184.616C-0.606667 178.949 -0.266667 173.282 2 167.616L61.16 18.0155H120.32ZM179.82 63.9155V252.616H121.34V100.636L131.88 63.9155H179.82Z" fill="url(#paint0_linear_3455_10882)"/>
<path d="M654.859 18.0155L603.179 151.296C602.046 154.242 602.159 156.622 603.519 158.436C604.879 160.022 606.919 160.816 609.639 160.816H741.899V196.856L714.699 202.636H561.019C554.672 202.636 549.232 201.049 544.699 197.876C540.166 194.476 537.106 190.056 535.519 184.616C533.932 178.949 534.272 173.282 536.539 167.616L595.699 18.0155H654.859ZM714.359 63.9155V252.616H655.879V100.636L666.419 63.9155H714.359Z" fill="url(#paint1_linear_3455_10882)"/>
<g clip-path="url(#clip0_3455_10882)">
<path d="M371.683 0C446.415 0 506.998 60.5828 506.998 135.315C506.998 179.824 485.508 219.311 452.34 243.973C466.776 226.15 475.426 203.449 475.426 178.727C475.426 121.432 428.98 74.9854 371.686 74.9854C314.391 74.9854 267.945 121.432 267.945 178.727C267.945 203.453 276.598 226.158 291.038 243.982C257.862 219.321 236.367 179.829 236.367 135.315C236.367 60.5828 296.95 3.2995e-05 371.683 0Z" fill="#34CC67"/>
<path d="M441.326 218.914C441.326 257.375 410.147 288.555 371.686 288.555C333.224 288.555 302.045 257.375 302.045 218.914C302.045 180.452 333.224 149.273 371.686 149.273C410.147 149.273 441.326 180.452 441.326 218.914Z" fill="#006634"/>
<path d="M371.686 74.9854C428.98 74.9854 475.426 121.432 475.426 178.727C475.426 220.069 451.241 255.761 416.249 272.432C431.574 259.657 441.328 240.425 441.328 218.914C441.328 180.453 410.149 149.273 371.688 149.273C333.226 149.273 302.047 180.453 302.047 218.914C302.047 240.427 311.803 259.661 327.131 272.436C292.134 255.766 267.946 220.072 267.945 178.727C267.945 121.432 314.391 74.9854 371.686 74.9854Z" fill="#339967"/>
</g>
<defs>
<linearGradient id="paint0_linear_3455_10882" x1="-5.57959" y1="116.616" x2="215.42" y2="116.616" gradientUnits="userSpaceOnUse">
<stop stop-color="#339967"/>
<stop offset="1" stop-color="#1CAE4D"/>
</linearGradient>
<linearGradient id="paint1_linear_3455_10882" x1="528.959" y1="116.616" x2="749.959" y2="116.616" gradientUnits="userSpaceOnUse">
<stop stop-color="#339967"/>
<stop offset="1" stop-color="#1CAE4D"/>
</linearGradient>
<clipPath id="clip0_3455_10882">
<rect x="236.367" width="270.631" height="270.631" rx="135.315" fill="white"/>
</clipPath>
</defs>
</svg>
