<svg width="50" height="50" viewBox="0 0 50 50" fill="none" xmlns="http://www.w3.org/2000/svg">
<g clip-path="url(#clip0_2762_9298)">
<path fill-rule="evenodd" clip-rule="evenodd" d="M25 44C35.4934 44 44 35.4934 44 25C44 14.5066 35.4934 6 25 6C14.5066 6 6 14.5066 6 25C6 35.4934 14.5066 44 25 44ZM25 45C36.0457 45 45 36.0457 45 25C45 13.9543 36.0457 5 25 5C13.9543 5 5 13.9543 5 25C5 36.0457 13.9543 45 25 45Z" fill="url(#paint0_linear_2762_9298)"/>
<path fill-rule="evenodd" clip-rule="evenodd" d="M25 49C38.2548 49 49 38.2548 49 25C49 11.7452 38.2548 1 25 1C11.7452 1 1 11.7452 1 25C1 38.2548 11.7452 49 25 49ZM25 50C38.8071 50 50 38.8071 50 25C50 11.1929 38.8071 0 25 0C11.1929 0 0 11.1929 0 25C0 38.8071 11.1929 50 25 50Z" fill="url(#paint1_linear_2762_9298)"/>
<path d="M41 25C41 33.8366 33.8366 41 25 41C16.1634 41 9 33.8366 9 25C9 16.1634 16.1634 9 25 9C33.8366 9 41 16.1634 41 25Z" fill="url(#paint2_linear_2762_9298)"/>
<path d="M28.5 24.3125H27.375C27.3745 23.8651 27.1966 23.4362 26.8802 23.1198C26.5638 22.8034 26.1349 22.6255 25.6875 22.625V21.5C26.4332 21.5008 27.148 21.7974 27.6753 22.3247C28.2026 22.852 28.4992 23.5668 28.5 24.3125Z" fill="white"/>
<path d="M30.75 24.3125H29.625C29.6238 23.2686 29.2086 22.2677 28.4705 21.5295C27.7323 20.7914 26.7314 20.3762 25.6875 20.375V19.25C27.0297 19.2515 28.3165 19.7853 29.2656 20.7344C30.2147 21.6835 30.7485 22.9703 30.75 24.3125Z" fill="white"/>
<path d="M26.4372 29.0838L27.6972 27.8238C27.8658 27.6551 28.0802 27.5396 28.3139 27.4916C28.5475 27.4436 28.7901 27.4652 29.0116 27.5538L30.5462 28.1677C30.7724 28.2582 30.9662 28.4144 31.1028 28.6161C31.2393 28.8179 31.3123 29.0559 31.3122 29.2996V32.0903C31.3126 32.2562 31.2791 32.4204 31.2138 32.5728C31.1485 32.7253 31.0528 32.8629 30.9325 32.977C30.8122 33.0912 30.6699 33.1797 30.5142 33.237C30.3586 33.2942 30.1929 33.3191 30.0273 33.3101C19.2712 32.6405 17.099 23.5314 16.6954 20.0419C16.6759 19.8714 16.6927 19.6986 16.7447 19.535C16.7968 19.3714 16.8829 19.2206 16.9973 19.0927C17.1118 18.9647 17.2521 18.8625 17.409 18.7926C17.5658 18.7228 17.7357 18.687 17.9074 18.6875H20.6483C20.8919 18.6875 21.1299 18.7605 21.3316 18.897C21.5333 19.0336 21.6894 19.2275 21.7799 19.4536L22.3937 20.9881C22.4823 21.2096 22.5039 21.4522 22.4559 21.6858C22.4079 21.9195 22.2924 22.1339 22.1237 22.3025L20.8637 23.5625C20.8637 23.5625 21.5622 28.4744 26.4372 29.0838Z" fill="white"/>
</g>
<defs>
<linearGradient id="paint0_linear_2762_9298" x1="5" y1="25" x2="45" y2="25" gradientUnits="userSpaceOnUse">
<stop stop-color="#2BC25E"/>
<stop offset="1" stop-color="#1CAE4D"/>
</linearGradient>
<linearGradient id="paint1_linear_2762_9298" x1="0" y1="25" x2="50" y2="25" gradientUnits="userSpaceOnUse">
<stop stop-color="#2BC25E"/>
<stop offset="1" stop-color="#1CAE4D"/>
</linearGradient>
<linearGradient id="paint2_linear_2762_9298" x1="9" y1="25" x2="41" y2="25" gradientUnits="userSpaceOnUse">
<stop stop-color="#2BC25E"/>
<stop offset="1" stop-color="#1CAE4D"/>
</linearGradient>
<clipPath id="clip0_2762_9298">
<rect width="50" height="50" rx="25" fill="white"/>
</clipPath>
</defs>
</svg>
