<svg width="59" height="35" viewBox="0 0 59 35" fill="none" xmlns="http://www.w3.org/2000/svg">
<path d="M25.6826 34.6842C32.5744 32.0303 37.4417 25.5534 37.4417 17.9844C37.4417 8.05189 29.0601 0 18.7209 0C8.38161 0 0 8.05189 0 17.9844C0 25.5534 4.86729 32.0303 11.7591 34.6842H25.6826Z" fill="#34CC67"/>
<path d="M25.5753 34.6841C29.0935 32.514 31.4244 28.7222 31.4244 24.4074C31.4244 17.6675 25.7369 12.2037 18.721 12.2037C11.7051 12.2037 6.01758 17.6675 6.01758 24.4074C6.01758 28.7222 8.34854 32.514 11.8668 34.6841H25.5753Z" fill="#339967"/>
<path d="M46.1386 34.6844C49.717 32.8456 52.1514 29.2208 52.1514 25.0498C52.1514 19.0194 47.0626 14.1307 40.7852 14.1307C34.5078 14.1307 29.4189 19.0194 29.4189 25.0498C29.4189 29.2208 31.8534 32.8456 35.4317 34.6844H46.1386Z" fill="#34CC67"/>
<path d="M43.8848 34.6842C46.0465 33.3033 47.4713 30.9421 47.4713 28.2613C47.4713 24.0045 43.8791 20.5537 39.448 20.5537C35.0169 20.5537 31.4248 24.0045 31.4248 28.2613C31.4248 30.9421 32.8495 33.3033 35.0112 34.6842H43.8848Z" fill="#339967"/>
<path d="M41.8534 34.6842C42.8408 33.8044 43.4587 32.5473 43.4587 31.1515C43.4587 28.491 41.2136 26.3342 38.4442 26.3342C35.6748 26.3342 33.4297 28.491 33.4297 31.1515C33.4297 32.5473 34.0476 33.8044 35.035 34.6842H41.8534Z" fill="#006634"/>
<path d="M24.0274 34.6842C25.6931 33.2719 26.7437 31.2055 26.7437 28.9034C26.7437 24.6466 23.1516 21.1958 18.7205 21.1958C14.2894 21.1958 10.6973 24.6466 10.6973 28.9034C10.6973 31.2055 11.7479 33.2719 13.4136 34.6842H24.0274Z" fill="#006634"/>
</svg>
