<svg width="261" height="55" viewBox="0 0 261 55" fill="none" xmlns="http://www.w3.org/2000/svg">
<g clip-path="url(#clip0_2474_524)">
<path d="M39.0635 54.0665C49.3185 49.9719 56.5611 39.979 56.5611 28.3011C56.5611 12.9766 44.0892 0.553711 28.7044 0.553711C13.3195 0.553711 0.847656 12.9766 0.847656 28.3011C0.847656 39.979 8.0902 49.9719 18.3452 54.0665H39.0635Z" fill="#34CC67"/>
<path d="M38.9037 54.0664C44.1388 50.7183 47.6073 44.8681 47.6073 38.211C47.6073 27.8123 39.1442 19.3824 28.7045 19.3824C18.2648 19.3824 9.80176 27.8123 9.80176 38.211C9.80176 44.8681 13.2702 50.7183 18.5054 54.0664H38.9037Z" fill="#339967"/>
<path d="M69.502 54.0667C74.8266 51.2297 78.449 45.6372 78.449 39.202C78.449 29.8978 70.8768 22.3553 61.536 22.3553C52.1953 22.3553 44.623 29.8978 44.623 39.202C44.623 45.6372 48.2455 51.2297 53.5701 54.0667H69.502Z" fill="#34CC67"/>
<path d="M66.147 54.0664C69.3636 51.936 71.4836 48.293 71.4836 44.1569C71.4836 37.5892 66.1385 32.2651 59.545 32.2651C52.9515 32.2651 47.6064 37.5892 47.6064 44.1569C47.6064 48.293 49.7264 51.936 52.9431 54.0664H66.147Z" fill="#339967"/>
<path d="M63.1253 54.0665C64.5946 52.7091 65.5141 50.7695 65.5141 48.616C65.5141 44.5113 62.1734 41.1837 58.0524 41.1837C53.9315 41.1837 50.5908 44.5113 50.5908 48.616C50.5908 50.7695 51.5103 52.7091 52.9796 54.0665H63.1253Z" fill="#006634"/>
<path d="M36.6009 54.0664C39.0795 51.8874 40.6428 48.6993 40.6428 45.1475C40.6428 38.5798 35.2977 33.2557 28.7042 33.2557C22.1107 33.2557 16.7656 38.5798 16.7656 45.1475C16.7656 48.6993 18.3289 51.8874 20.8076 54.0664H36.6009Z" fill="#006634"/>
<path d="M99.5405 46.0058V53.7556H98.5145V46.8468H94.6778V53.7556H93.6465V46.0058H99.5405Z" fill="#5C5C5C"/>
<path d="M105.002 51.9778L108.833 46.0058H109.865V53.7556H108.833V47.7783L105.002 53.7556H103.976V46.0058H105.002V51.9778Z" fill="#5C5C5C"/>
<path d="M116.972 46.0058V53.7556H115.956V46.0058H116.972ZM119.473 46.0058V46.8468H113.461V46.0058H119.473Z" fill="#5C5C5C"/>
<path d="M128.984 49.6359V50.1255C128.984 50.7075 128.911 51.2291 128.765 51.6904C128.619 52.1517 128.409 52.5438 128.135 52.8667C127.86 53.1896 127.531 53.4362 127.146 53.6065C126.765 53.7769 126.338 53.862 125.864 53.862C125.404 53.862 124.982 53.7769 124.597 53.6065C124.216 53.4362 123.885 53.1896 123.603 52.8667C123.326 52.5438 123.11 52.1517 122.957 51.6904C122.804 51.2291 122.727 50.7075 122.727 50.1255V49.6359C122.727 49.0539 122.802 48.5341 122.951 48.0763C123.105 47.615 123.32 47.2229 123.598 46.9C123.876 46.5736 124.205 46.3252 124.587 46.1549C124.971 45.9845 125.393 45.8994 125.853 45.8994C126.327 45.8994 126.754 45.9845 127.135 46.1549C127.52 46.3252 127.85 46.5736 128.124 46.9C128.402 47.2229 128.614 47.615 128.76 48.0763C128.91 48.5341 128.984 49.0539 128.984 49.6359ZM127.964 50.1255V49.6252C127.964 49.1639 127.916 48.7558 127.819 48.401C127.727 48.0462 127.59 47.7481 127.408 47.5068C127.226 47.2655 127.004 47.0828 126.74 46.9586C126.48 46.8344 126.184 46.7723 125.853 46.7723C125.532 46.7723 125.242 46.8344 124.982 46.9586C124.726 47.0828 124.505 47.2655 124.319 47.5068C124.138 47.7481 123.997 48.0462 123.897 48.401C123.798 48.7558 123.748 49.1639 123.748 49.6252V50.1255C123.748 50.5904 123.798 51.002 123.897 51.3604C123.997 51.7152 124.14 52.0151 124.325 52.2599C124.514 52.5012 124.736 52.684 124.993 52.8081C125.253 52.9323 125.543 52.9944 125.864 52.9944C126.199 52.9944 126.496 52.9323 126.756 52.8081C127.016 52.684 127.235 52.5012 127.413 52.2599C127.595 52.0151 127.732 51.7152 127.825 51.3604C127.917 51.002 127.964 50.5904 127.964 50.1255Z" fill="#5C5C5C"/>
<path d="M133.372 46.0058H134.371L136.92 52.3238L139.463 46.0058H140.468L137.305 53.7556H136.524L133.372 46.0058ZM133.046 46.0058H133.927L134.072 50.7323V53.7556H133.046V46.0058ZM139.907 46.0058H140.789V53.7556H139.763V50.7323L139.907 46.0058Z" fill="#5C5C5C"/>
<path d="M150.199 49.3378V50.1734H145.988V49.3378H150.199ZM146.148 46.0058V53.7556H145.117V46.0058H146.148ZM151.097 46.0058V53.7556H150.071V46.0058H151.097Z" fill="#5C5C5C"/>
<path d="M156.521 51.9778L160.352 46.0058H161.383V53.7556H160.352V47.7783L156.521 53.7556H155.495V46.0058H156.521V51.9778Z" fill="#5C5C5C"/>
<path d="M166.855 46.0058V53.7556H165.824V46.0058H166.855ZM171.649 46.0058L168.271 50.2692H166.444L166.284 49.4176H167.657L170.371 46.0058H171.649ZM170.612 53.7556L167.689 50.1362L168.266 49.2367L171.873 53.7556H170.612Z" fill="#5C5C5C"/>
<path d="M188.658 50.7164H186.579V49.8807H188.658C189.06 49.8807 189.386 49.8168 189.636 49.6891C189.885 49.5613 190.067 49.3839 190.181 49.1568C190.298 48.9297 190.357 48.6707 190.357 48.3797C190.357 48.1136 190.298 47.8634 190.181 47.6292C190.067 47.395 189.885 47.207 189.636 47.065C189.386 46.9195 189.06 46.8468 188.658 46.8468H186.82V53.7556H185.788V46.0058H188.658C189.246 46.0058 189.743 46.107 190.149 46.3092C190.555 46.5115 190.863 46.7918 191.073 47.1502C191.283 47.505 191.389 47.9113 191.389 48.3691C191.389 48.8658 191.283 49.2899 191.073 49.6412C190.863 49.9925 190.555 50.2604 190.149 50.4449C189.743 50.6259 189.246 50.7164 188.658 50.7164Z" fill="#5C5C5C"/>
<path d="M197.352 46.6924L194.777 53.7556H193.724L196.69 46.0058H197.368L197.352 46.6924ZM199.511 53.7556L196.93 46.6924L196.914 46.0058H197.593L200.569 53.7556H199.511ZM199.377 50.8867V51.7277H195.006V50.8867H199.377Z" fill="#5C5C5C"/>
<path d="M208.761 51.2912H209.787C209.734 51.7809 209.593 52.2191 209.365 52.6059C209.137 52.9927 208.814 53.2996 208.398 53.5267C207.981 53.7503 207.461 53.862 206.837 53.862C206.381 53.862 205.966 53.7769 205.592 53.6065C205.222 53.4362 204.903 53.1949 204.636 52.8827C204.369 52.5669 204.162 52.1889 204.016 51.7489C203.873 51.3054 203.802 50.8122 203.802 50.2692V49.4975C203.802 48.9546 203.873 48.4631 204.016 48.0231C204.162 47.5795 204.37 47.1999 204.641 46.8841C204.915 46.5682 205.245 46.3252 205.63 46.1549C206.014 45.9845 206.447 45.8994 206.928 45.8994C207.516 45.8994 208.013 46.0094 208.419 46.2294C208.825 46.4494 209.14 46.7545 209.365 47.1449C209.593 47.5316 209.734 47.9805 209.787 48.4915H208.761C208.711 48.1296 208.618 47.8191 208.483 47.56C208.348 47.2974 208.155 47.0952 207.906 46.9532C207.657 46.8113 207.331 46.7403 206.928 46.7403C206.583 46.7403 206.278 46.806 206.014 46.9373C205.754 47.0686 205.535 47.2549 205.357 47.4962C205.183 47.7375 205.051 48.0266 204.962 48.3637C204.873 48.7008 204.828 49.0752 204.828 49.4868V50.2692C204.828 50.6489 204.867 51.0055 204.946 51.3391C205.028 51.6726 205.15 51.9654 205.314 52.2173C205.478 52.4693 205.687 52.668 205.94 52.8135C206.192 52.9554 206.492 53.0264 206.837 53.0264C207.275 53.0264 207.625 52.9572 207.885 52.8188C208.145 52.6804 208.341 52.4817 208.472 52.2227C208.608 51.9636 208.704 51.6531 208.761 51.2912Z" fill="#5C5C5C"/>
<path d="M216.424 46.0058V53.7556H215.409V46.0058H216.424ZM218.925 46.0058V46.8468H212.913V46.0058H218.925Z" fill="#5C5C5C"/>
<path d="M227.539 52.9199V53.7556H223.419V52.9199H227.539ZM223.627 46.0058V53.7556H222.596V46.0058H223.627ZM226.994 49.3378V50.1734H223.419V49.3378H226.994ZM227.485 46.0058V46.8468H223.419V46.0058H227.485Z" fill="#5C5C5C"/>
<path d="M236.415 49.3378V50.1734H232.204V49.3378H236.415ZM232.364 46.0058V53.7556H231.333V46.0058H232.364ZM237.313 46.0058V53.7556H236.287V46.0058H237.313Z" fill="#5C5C5C"/>
<path d="M242.736 51.9778L246.568 46.0058H247.599V53.7556H246.568V47.7783L242.736 53.7556H241.711V46.0058H242.736V51.9778Z" fill="#5C5C5C"/>
<path d="M253.066 51.9778L256.897 46.0058H257.929V53.7556H256.897V47.7783L253.066 53.7556H252.04V46.0058H253.066V51.9778ZM255.802 44.0844H256.603C256.603 44.3611 256.539 44.6077 256.411 44.8242C256.283 45.0371 256.099 45.2039 255.861 45.3245C255.622 45.4452 255.339 45.5055 255.011 45.5055C254.516 45.5055 254.124 45.3742 253.835 45.1116C253.55 44.8455 253.408 44.5031 253.408 44.0844H254.209C254.209 44.2937 254.27 44.4782 254.391 44.6379C254.512 44.7976 254.719 44.8774 255.011 44.8774C255.296 44.8774 255.499 44.7976 255.62 44.6379C255.741 44.4782 255.802 44.2937 255.802 44.0844Z" fill="#5C5C5C"/>
<path d="M260.511 11.5068H253.166V36.1177H247.147V11.5068H239.925V6.52771H260.511V11.5068Z" fill="#095024"/>
<path d="M232.344 6.52771H238.342V36.1177H232.344V16.5265L223.591 36.1177H217.572V6.52771H223.591V26.1392L232.344 6.52771Z" fill="#095024"/>
<path d="M204.973 16.6891L208.972 6.52771H215.848L208.87 21.2008L216.011 36.1177H209.053L204.973 25.7734L200.913 36.1177H193.955L201.096 21.2008L194.098 6.52771H200.974L204.973 16.6891Z" fill="#095024"/>
<path d="M186.129 30.0615H177.948L176.356 36.1177H170.011L179.294 6.52771H184.783L194.127 36.1177H187.721L186.129 30.0615ZM179.253 25.0824H184.803L182.028 14.5349L179.253 25.0824Z" fill="#095024"/>
<path d="M162.396 30.0615H162.409L164.001 36.1177H170.407L161.063 6.52771H155.574L146.291 36.1177H152.636L154.228 30.0615H154.23L155.541 25.0824H155.534L158.308 14.5349L161.083 25.0824H161.082L162.396 30.0615Z" fill="#095024"/>
<path d="M138.69 30.0615H130.508L128.917 36.1177H122.571L131.855 6.52771H137.343L146.688 36.1177H140.281L138.69 30.0615ZM131.814 25.0824H137.364L134.589 14.5349L131.814 25.0824Z" fill="#095024"/>
<path d="M101.525 6.52771L107.136 27.9276L112.726 6.52771H120.561V36.1177H114.542V28.1105L115.093 15.7746L109.156 36.1177H105.075L99.138 15.7746L99.6889 28.1105V36.1177H93.6904V6.52771H101.525Z" fill="#095024"/>
</g>
<defs>
<clipPath id="clip0_2474_524">
<rect width="260" height="54" fill="white" transform="translate(0.847656 0.553711)"/>
</clipPath>
</defs>
</svg>
