<svg width="231" height="48" viewBox="0 0 231 48" fill="none" xmlns="http://www.w3.org/2000/svg">
<g clip-path="url(#clip0_2474_1356)">
<path d="M33.9533 47.5669C43.0645 43.9273 49.4992 35.0447 49.4992 24.6643C49.4992 11.0426 38.4184 0 24.7496 0C11.0808 0 0 11.0426 0 24.6643C0 35.0447 6.43472 43.9273 15.5459 47.5669H33.9533Z" fill="#34CC67"/>
<path d="M33.811 47.5665C38.4622 44.5905 41.5438 39.3903 41.5438 33.4728C41.5438 24.2295 34.0247 16.7363 24.7495 16.7363C15.4742 16.7363 7.95508 24.2295 7.95508 33.4728C7.95508 39.3903 11.0367 44.5905 15.6879 47.5665H33.811Z" fill="#339967"/>
<path d="M60.9965 47.5668C65.7273 45.045 68.9457 40.0739 68.9457 34.3537C68.9457 26.0833 62.2181 19.3789 53.9191 19.3789C45.6202 19.3789 38.8926 26.0833 38.8926 34.3537C38.8926 40.0739 42.111 45.045 46.8417 47.5668H60.9965Z" fill="#34CC67"/>
<path d="M58.0165 47.5664C60.8744 45.6727 62.7579 42.4345 62.7579 38.7579C62.7579 32.92 58.009 28.1875 52.1509 28.1875C46.2928 28.1875 41.5439 32.92 41.5439 38.7579C41.5439 42.4345 43.4275 45.6727 46.2853 47.5664H58.0165Z" fill="#339967"/>
<path d="M55.3317 47.5666C56.6371 46.36 57.454 44.636 57.454 42.7217C57.454 39.0731 54.486 36.1152 50.8247 36.1152C47.1634 36.1152 44.1953 39.0731 44.1953 42.7217C44.1953 44.636 45.0122 46.36 46.3176 47.5666H55.3317Z" fill="#006634"/>
<path d="M31.7654 47.5668C33.9676 45.6299 35.3565 42.796 35.3565 39.6388C35.3565 33.8009 30.6076 29.0684 24.7496 29.0684C18.8915 29.0684 14.1426 33.8009 14.1426 39.6388C14.1426 42.796 15.5315 45.6299 17.7337 47.5668H31.7654Z" fill="#006634"/>
<path d="M87.6848 40.4023V47.291H86.7733V41.1498H83.3645V47.291H82.4482V40.4023H87.6848Z" fill="#5C5C5C"/>
<path d="M92.5371 45.7107L95.9411 40.4023H96.8574V47.291H95.9411V41.9778L92.5371 47.291H91.6255V40.4023H92.5371V45.7107Z" fill="#5C5C5C"/>
<path d="M103.172 40.4023V47.291H102.27V40.4023H103.172ZM105.394 40.4023V41.1498H100.053V40.4023H105.394Z" fill="#5C5C5C"/>
<path d="M113.845 43.629V44.0643C113.845 44.5816 113.78 45.0452 113.65 45.4553C113.52 45.8653 113.333 46.2138 113.09 46.5009C112.846 46.7879 112.553 47.0071 112.211 47.1585C111.873 47.3099 111.493 47.3856 111.072 47.3856C110.664 47.3856 110.289 47.3099 109.947 47.1585C109.608 47.0071 109.314 46.7879 109.064 46.5009C108.817 46.2138 108.625 45.8653 108.489 45.4553C108.353 45.0452 108.285 44.5816 108.285 44.0643V43.629C108.285 43.1117 108.352 42.6496 108.485 42.2428C108.621 41.8327 108.812 41.4842 109.059 41.1972C109.306 40.907 109.599 40.6862 109.937 40.5348C110.279 40.3834 110.654 40.3077 111.063 40.3077C111.483 40.3077 111.863 40.3834 112.202 40.5348C112.544 40.6862 112.837 40.907 113.08 41.1972C113.327 41.4842 113.515 41.8327 113.645 42.2428C113.778 42.6496 113.845 43.1117 113.845 43.629ZM112.938 44.0643V43.6195C112.938 43.2095 112.895 42.8468 112.81 42.5314C112.727 42.2159 112.605 41.951 112.444 41.7365C112.283 41.522 112.085 41.3596 111.851 41.2492C111.62 41.1388 111.357 41.0836 111.063 41.0836C110.778 41.0836 110.52 41.1388 110.289 41.2492C110.061 41.3596 109.865 41.522 109.7 41.7365C109.539 41.951 109.414 42.2159 109.325 42.5314C109.236 42.8468 109.192 43.2095 109.192 43.6195V44.0643C109.192 44.4775 109.236 44.8434 109.325 45.1619C109.414 45.4773 109.54 45.7439 109.705 45.9615C109.872 46.176 110.07 46.3384 110.298 46.4488C110.529 46.5592 110.787 46.6144 111.072 46.6144C111.37 46.6144 111.634 46.5592 111.865 46.4488C112.096 46.3384 112.291 46.176 112.449 45.9615C112.61 45.7439 112.732 45.4773 112.814 45.1619C112.897 44.8434 112.938 44.4775 112.938 44.0643Z" fill="#5C5C5C"/>
<path d="M117.743 40.4023H118.63L120.895 46.0183L123.155 40.4023H124.047L121.237 47.291H120.544L117.743 40.4023ZM117.453 40.4023H118.236L118.365 44.6036V47.291H117.453V40.4023ZM123.549 40.4023H124.332V47.291H123.421V44.6036L123.549 40.4023Z" fill="#5C5C5C"/>
<path d="M132.693 43.3641V44.1069H128.952V43.3641H132.693ZM129.094 40.4023V47.291H128.178V40.4023H129.094ZM133.491 40.4023V47.291H132.579V40.4023H133.491Z" fill="#5C5C5C"/>
<path d="M138.31 45.7107L141.714 40.4023H142.63V47.291H141.714V41.9778L138.31 47.291H137.398V40.4023H138.31V45.7107Z" fill="#5C5C5C"/>
<path d="M147.492 40.4023V47.291H146.575V40.4023H147.492ZM151.75 40.4023L148.75 44.192H147.126L146.984 43.435H148.204L150.615 40.4023H151.75ZM150.829 47.291L148.232 44.0737L148.745 43.2742L151.95 47.291H150.829Z" fill="#5C5C5C"/>
<path d="M166.862 44.5894H165.015V43.8466H166.862C167.22 43.8466 167.51 43.7899 167.731 43.6763C167.953 43.5628 168.114 43.4051 168.215 43.2032C168.32 43.0013 168.372 42.7711 168.372 42.5124C168.372 42.2759 168.32 42.0535 168.215 41.8453C168.114 41.6372 167.953 41.47 167.731 41.3438C167.51 41.2145 167.22 41.1498 166.862 41.1498H165.229V47.291H164.313V40.4023H166.862C167.384 40.4023 167.826 40.4922 168.187 40.672C168.548 40.8518 168.821 41.101 169.008 41.4195C169.195 41.7349 169.288 42.0961 169.288 42.503C169.288 42.9446 169.195 43.3215 169.008 43.6337C168.821 43.946 168.548 44.1841 168.187 44.3482C167.826 44.509 167.384 44.5894 166.862 44.5894Z" fill="#5C5C5C"/>
<path d="M174.587 41.0126L172.298 47.291H171.363L173.998 40.4023H174.601L174.587 41.0126ZM176.505 47.291L174.212 41.0126L174.197 40.4023H174.8L177.445 47.291H176.505ZM176.386 44.7408V45.4884H172.503V44.7408H176.386Z" fill="#5C5C5C"/>
<path d="M184.723 45.1004H185.635C185.587 45.5357 185.462 45.9252 185.26 46.269C185.057 46.6128 184.771 46.8857 184.4 47.0875C184.03 47.2862 183.568 47.3856 183.014 47.3856C182.609 47.3856 182.24 47.3099 181.908 47.1585C181.579 47.0071 181.295 46.7926 181.058 46.5151C180.821 46.2343 180.637 45.8984 180.507 45.5073C180.381 45.113 180.317 44.6746 180.317 44.192V43.506C180.317 43.0234 180.381 42.5866 180.507 42.1954C180.637 41.8012 180.822 41.4637 181.063 41.183C181.306 40.9022 181.599 40.6862 181.941 40.5348C182.283 40.3834 182.667 40.3077 183.095 40.3077C183.617 40.3077 184.058 40.4055 184.419 40.601C184.78 40.7966 185.06 41.0678 185.26 41.4148C185.462 41.7586 185.587 42.1576 185.635 42.6118H184.723C184.679 42.2901 184.596 42.0141 184.476 41.7838C184.356 41.5504 184.185 41.3706 183.963 41.2445C183.742 41.1183 183.452 41.0552 183.095 41.0552C182.788 41.0552 182.517 41.1136 182.283 41.2303C182.052 41.347 181.857 41.5126 181.699 41.7271C181.544 41.9415 181.427 42.1986 181.348 42.4982C181.268 42.7979 181.229 43.1307 181.229 43.4965V44.192C181.229 44.5295 181.264 44.8465 181.333 45.143C181.406 45.4395 181.515 45.6997 181.661 45.9237C181.806 46.1476 181.992 46.3242 182.216 46.4536C182.441 46.5797 182.707 46.6428 183.014 46.6428C183.403 46.6428 183.713 46.5813 183.944 46.4583C184.176 46.3353 184.35 46.1586 184.467 45.9284C184.587 45.6981 184.672 45.4221 184.723 45.1004Z" fill="#5C5C5C"/>
<path d="M191.531 40.4023V47.291H190.629V40.4023H191.531ZM193.753 40.4023V41.1498H188.412V40.4023H193.753Z" fill="#5C5C5C"/>
<path d="M201.406 46.5482V47.291H197.746V46.5482H201.406ZM197.931 40.4023V47.291H197.015V40.4023H197.931ZM200.922 43.3641V44.1069H197.746V43.3641H200.922ZM201.359 40.4023V41.1498H197.746V40.4023H201.359Z" fill="#5C5C5C"/>
<path d="M209.292 43.3641V44.1069H205.551V43.3641H209.292ZM205.694 40.4023V47.291H204.777V40.4023H205.694ZM210.09 40.4023V47.291H209.178V40.4023H210.09Z" fill="#5C5C5C"/>
<path d="M214.909 45.7107L218.313 40.4023H219.229V47.291H218.313V41.9778L214.909 47.291H213.997V40.4023H214.909V45.7107Z" fill="#5C5C5C"/>
<path d="M224.086 45.7107L227.49 40.4023H228.407V47.291H227.49V41.9778L224.086 47.291H223.175V40.4023H224.086V45.7107ZM226.517 38.6943H227.229C227.229 38.9404 227.172 39.1596 227.058 39.352C226.944 39.5412 226.781 39.6895 226.569 39.7967C226.357 39.904 226.106 39.9576 225.814 39.9576C225.374 39.9576 225.026 39.8409 224.77 39.6075C224.517 39.3709 224.39 39.0665 224.39 38.6943H225.102C225.102 38.8804 225.156 39.0444 225.264 39.1864C225.371 39.3283 225.555 39.3993 225.814 39.3993C226.068 39.3993 226.248 39.3283 226.356 39.1864C226.463 39.0444 226.517 38.8804 226.517 38.6943Z" fill="#5C5C5C"/>
<path d="M230.701 9.7364H224.175V31.6127H218.828V9.7364H212.411V5.31055H230.701V9.7364Z" fill="#095024"/>
<path d="M205.676 5.31055H211.005V31.6127H205.676V14.1984L197.899 31.6127H192.552V5.31055H197.899V22.743L205.676 5.31055Z" fill="#095024"/>
<path d="M181.357 14.3429L184.91 5.31055H191.019L184.82 18.3533L191.164 31.6127H184.983L181.357 22.4178L177.75 31.6127H171.569L177.913 18.3533L171.696 5.31055H177.805L181.357 14.3429Z" fill="#095024"/>
<path d="M164.616 26.2295H157.347L155.933 31.6127H150.295L158.543 5.31055H163.419L171.721 31.6127H166.029L164.616 26.2295ZM158.507 21.8036H163.437L160.972 12.428L158.507 21.8036Z" fill="#095024"/>
<path d="M143.529 26.2295H143.541L144.955 31.6127H150.647L142.345 5.31055H137.469L129.221 31.6127H134.859L136.272 26.2295H136.275L137.439 21.8036H137.433L139.898 12.428L142.363 21.8036H142.362L143.529 26.2295Z" fill="#095024"/>
<path d="M122.467 26.2295H115.198L113.785 31.6127H108.147L116.395 5.31055H121.271L129.573 31.6127H123.881L122.467 26.2295ZM116.359 21.8036H121.289L118.824 12.428L116.359 21.8036Z" fill="#095024"/>
<path d="M89.4481 5.31055L94.4331 24.3327L99.3999 5.31055H106.361V31.6127H101.013V24.4953L101.503 13.53L96.2277 31.6127H92.6023L87.3273 13.53L87.8167 24.4953V31.6127H82.4873V5.31055H89.4481Z" fill="#095024"/>
</g>
<defs>
<clipPath id="clip0_2474_1356">
<rect width="231" height="48" fill="white"/>
</clipPath>
</defs>
</svg>
