<svg width="73" height="56" viewBox="0 0 73 56" fill="none" xmlns="http://www.w3.org/2000/svg">
<path d="M39.8665 39.2889C39.8665 35.0222 40.3981 30.7556 41.4612 26.4889C42.6424 22.2222 44.3552 18.3111 46.5995 14.7556C48.962 11.0815 51.7969 7.94074 55.1044 5.33333C58.4118 2.72593 62.3099 0.948148 66.7985 0L71.5825 5.51111C68.5113 7.17037 65.7354 9.6 63.2549 12.8C60.7743 15.8815 59.4159 19.2593 59.1796 22.9333C63.1958 23.5259 66.5032 25.4222 69.1019 28.6222C71.7006 31.7037 73 35.2593 73 39.2889C73 41.6593 72.5275 43.8519 71.5825 45.8667C70.7557 47.8815 69.5744 49.6593 68.0388 51.2C66.5032 52.7407 64.7314 53.9259 62.7233 54.7556C60.7152 55.5852 58.589 56 56.3447 56C51.7379 56 47.8398 54.4 44.6505 51.2C41.4612 48 39.8665 44.0296 39.8665 39.2889ZM0 39.2889C0 35.0222 0.531553 30.7556 1.59466 26.4889C2.77589 22.2222 4.48867 18.3111 6.73301 14.7556C8.97735 11.0815 11.7532 7.94074 15.0607 5.33333C18.4862 2.72593 22.4434 0.948148 26.932 0L31.5388 5.51111C28.4676 7.17037 25.6917 9.6 23.2112 12.8C20.8487 15.8815 19.5494 19.2593 19.3131 22.9333C23.3293 23.5259 26.6367 25.4222 29.2354 28.6222C31.8341 31.7037 33.1335 35.2593 33.1335 39.2889C33.1335 41.6593 32.661 43.8519 31.716 45.8667C30.8892 47.8815 29.7079 49.6593 28.1723 51.2C26.6367 52.7407 24.8058 53.9259 22.6796 54.7556C20.6715 55.5852 18.5453 56 16.301 56C14.0566 56 11.9304 55.5852 9.92233 54.7556C7.91424 53.9259 6.14239 52.7407 4.6068 51.2C3.18932 49.6593 2.06715 47.8815 1.24029 45.8667C0.41343 43.8519 0 41.6593 0 39.2889Z" fill="#BEDCCD" fill-opacity="0.3"/>
</svg>
