<svg width="95" height="72" viewBox="0 0 95 72" fill="none" xmlns="http://www.w3.org/2000/svg">
<path d="M51.8811 50.5143C51.8811 45.0286 52.5728 39.5429 53.9563 34.0571C55.4935 28.5714 57.7225 23.5429 60.6432 18.9714C63.7176 14.2476 67.407 10.2095 71.7112 6.85714C76.0154 3.50476 81.0882 1.21905 86.9296 0L93.1553 7.08571C89.1586 9.21905 85.5461 12.3429 82.318 16.4571C79.0898 20.419 77.322 24.7619 77.0146 29.4857C82.2411 30.2476 86.5453 32.6857 89.9272 36.8C93.3091 40.7619 95 45.3333 95 50.5143C95 53.5619 94.3851 56.381 93.1553 58.9714C92.0793 61.5619 90.5421 63.8476 88.5437 65.8286C86.5453 67.8095 84.2395 69.3333 81.6262 70.4C79.0129 71.4667 76.246 72 73.3252 72C67.3301 72 62.2573 69.9429 58.1068 65.8286C53.9563 61.7143 51.8811 56.6095 51.8811 50.5143ZM0 50.5143C0 45.0286 0.691748 39.5429 2.07524 34.0571C3.61246 28.5714 5.84142 23.5429 8.76214 18.9714C11.6828 14.2476 15.2953 10.2095 19.5995 6.85714C24.0574 3.50476 29.2071 1.21905 35.0485 0L41.0437 7.08571C37.0469 9.21905 33.4345 12.3429 30.2063 16.4571C27.1319 20.419 25.4409 24.7619 25.1335 29.4857C30.36 30.2476 34.6642 32.6857 38.0461 36.8C41.428 40.7619 43.1189 45.3333 43.1189 50.5143C43.1189 53.5619 42.504 56.381 41.2743 58.9714C40.1982 61.5619 38.661 63.8476 36.6626 65.8286C34.6642 67.8095 32.2816 69.3333 29.5146 70.4C26.9013 71.4667 24.1343 72 21.2136 72C18.2929 72 15.5259 71.4667 12.9126 70.4C10.2994 69.3333 7.99353 67.8095 5.99515 65.8286C4.15049 63.8476 2.69013 61.5619 1.61408 58.9714C0.538026 56.381 0 53.5619 0 50.5143Z" fill="#BEDCCD" fill-opacity="0.3"/>
</svg>
