<svg width="100" height="63" viewBox="0 0 100 63" fill="none" xmlns="http://www.w3.org/2000/svg">
<g clip-path="url(#clip0_2115_32)">
<path fill-rule="evenodd" clip-rule="evenodd" d="M19.9934 14.6697C24.6495 7.71184 17.7834 -1.17489 3.50507 0.715044C1.32195 1.11922 0.414956 2.23081 0.683582 4.30932C2.68214 15.4154 14.6395 22.5949 19.9699 14.7086C19.9787 14.6969 19.9847 14.6817 19.9934 14.6696V14.6697Z" fill="#34CC67"/>
<path fill-rule="evenodd" clip-rule="evenodd" d="M0.683418 4.3094C2.63397 15.149 14.0696 22.2477 19.573 15.2509C13.6761 17.9015 5.08888 11.372 3.42156 2.11395C3.35568 1.59294 3.36171 1.13122 3.44546 0.727051C1.30371 1.14047 0.418061 2.25166 0.683418 4.3094Z" fill="#339967"/>
<path d="M25.2409 18.8717C25.0855 18.8718 24.9336 18.8254 24.8045 18.7384L7.98421 7.4585C7.62233 7.21526 7.52499 6.72271 7.76635 6.35821C7.8237 6.27158 7.89746 6.19717 7.9834 6.13923C8.06935 6.08128 8.1658 6.04095 8.26725 6.02053C8.36869 6.0001 8.47314 5.99999 8.57463 6.0202C8.67612 6.04041 8.77266 6.08054 8.85873 6.13829L25.679 17.4186C25.8528 17.5355 25.9734 17.717 26.0143 17.9234C26.0552 18.1297 26.0129 18.3439 25.8968 18.5189C25.825 18.6276 25.7274 18.7167 25.613 18.7783C25.4985 18.8399 25.3707 18.8719 25.2409 18.8717Z" fill="#006634"/>
<path d="M11.9225 9.94589C11.7277 9.94556 11.5399 9.87259 11.3954 9.74108C11.2509 9.60958 11.1599 9.42886 11.1401 9.23384L10.8089 5.99595C10.7643 5.56002 11.0791 5.17024 11.5119 5.12533C11.9448 5.08042 12.3315 5.39745 12.3761 5.83338L12.7073 9.07127C12.7516 9.50719 12.4368 9.89656 12.0042 9.94157C11.9767 9.94435 11.9496 9.94589 11.9225 9.94589Z" fill="#006634"/>
<path d="M8.98184 10.74C8.80842 10.7396 8.63995 10.6818 8.50248 10.5754C8.36501 10.4691 8.26619 10.3201 8.22132 10.1516C8.10886 9.7285 8.35818 9.29329 8.77828 9.18015L11.7196 8.38609C12.1398 8.27254 12.5718 8.52379 12.6844 8.94728C12.7968 9.37036 12.5475 9.80557 12.1273 9.91871L9.18643 10.7128C9.1183 10.7313 9.04956 10.74 8.98184 10.74ZM16.7424 13.1839C16.5475 13.1836 16.3597 13.1106 16.2152 12.9791C16.0707 12.8476 15.9798 12.6668 15.96 12.4718L15.5454 8.42822C15.5347 8.32463 15.5444 8.21992 15.5739 8.12009C15.6034 8.02026 15.6522 7.92725 15.7174 7.8464C15.7827 7.76555 15.8632 7.69843 15.9542 7.64887C16.0453 7.59932 16.1451 7.56831 16.2481 7.55761C16.6798 7.51259 17.068 7.82931 17.1126 8.26524L17.5272 12.3088C17.5386 12.4193 17.5268 12.531 17.4925 12.6367C17.4582 12.7423 17.4023 12.8396 17.3283 12.9221C17.2543 13.0046 17.1639 13.0705 17.063 13.1156C16.9621 13.1607 16.8528 13.184 16.7424 13.1839Z" fill="#006634"/>
<path d="M13.0717 14.1754C12.8983 14.1752 12.7297 14.1175 12.5922 14.0112C12.4547 13.9048 12.3559 13.7558 12.3112 13.5873C12.2843 13.4867 12.2774 13.3817 12.2909 13.2784C12.3043 13.1751 12.3379 13.0755 12.3896 12.9853C12.4413 12.895 12.5102 12.8159 12.5923 12.7524C12.6744 12.689 12.7681 12.6424 12.8681 12.6154L16.54 11.624C16.64 11.5971 16.7443 11.5902 16.8468 11.6039C16.9494 11.6175 17.0483 11.6514 17.1379 11.7035C17.2275 11.7556 17.306 11.8249 17.3689 11.9075C17.4319 11.9902 17.478 12.0845 17.5047 12.185C17.6173 12.6082 17.3679 13.0433 16.9478 13.1566L13.2759 14.148C13.2078 14.1665 13.1391 14.1754 13.0717 14.1754Z" fill="#006634"/>
<path fill-rule="evenodd" clip-rule="evenodd" d="M33.5769 14.2625C28.9182 7.3047 35.7872 -1.58243 50.0656 0.307912C52.2488 0.712083 53.1558 1.82327 52.8871 3.90178C50.8886 15.0083 38.9312 22.1878 33.6012 14.3015C33.5921 14.2894 33.586 14.2746 33.5768 14.2624L33.5769 14.2625Z" fill="#34CC67"/>
<path fill-rule="evenodd" clip-rule="evenodd" d="M52.8867 3.90171C50.9361 14.7413 39.5001 21.8401 33.9971 14.8433C39.894 17.4943 48.4812 10.9676 50.1485 1.70636C50.2139 1.18535 50.2084 0.723732 50.1246 0.319458C52.2664 0.732878 53.152 1.84407 52.8868 3.90181L52.8867 3.90171Z" fill="#339967"/>
<path d="M28.3307 18.501C28.2008 18.5012 28.0729 18.469 27.9584 18.4074C27.8439 18.3457 27.7463 18.2566 27.6743 18.1478C27.5584 17.9727 27.5163 17.7584 27.5573 17.5521C27.5982 17.3458 27.7188 17.1642 27.8926 17.0472L44.7128 5.73095C44.7989 5.67313 44.8954 5.63294 44.9969 5.61268C45.0984 5.59242 45.2028 5.59249 45.3043 5.61288C45.4057 5.63328 45.5022 5.6736 45.5882 5.73155C45.6741 5.78949 45.7479 5.86391 45.8052 5.95056C46.0466 6.31507 45.9492 6.80761 45.5874 7.05086L28.7671 18.3674C28.638 18.4545 28.4861 18.501 28.3307 18.501Z" fill="#006634"/>
<path d="M41.6494 9.53867C41.5389 9.53874 41.4297 9.51548 41.3288 9.47039C41.2279 9.4253 41.1375 9.35939 41.0636 9.27693C40.9896 9.19447 40.9336 9.0973 40.8993 8.99171C40.865 8.88611 40.8532 8.77445 40.8645 8.66394L41.1958 5.42605C41.2404 4.99054 41.6282 4.67382 42.0598 4.71842C42.4929 4.76333 42.8072 5.1527 42.763 5.58863L42.4317 8.82652C42.412 9.02155 42.321 9.2023 42.1765 9.33383C42.032 9.46535 41.8442 9.53834 41.6494 9.53867Z" fill="#006634"/>
<path d="M44.5896 10.3327C44.5204 10.3326 44.4516 10.3234 44.3849 10.3053L41.4441 9.51168C41.0239 9.39813 40.7746 8.96292 40.887 8.53984C40.9996 8.11677 41.4316 7.86551 41.8518 7.97875L44.7931 8.77271C45.2132 8.88585 45.4625 9.32106 45.3497 9.74455C45.3049 9.913 45.2061 10.0619 45.0687 10.1682C44.9313 10.2745 44.7629 10.3323 44.5896 10.3326V10.3327ZM36.829 12.7765C36.8019 12.7765 36.7748 12.7749 36.7468 12.7724C36.5389 12.7505 36.3482 12.6464 36.2164 12.4831C36.0847 12.3198 36.0227 12.1106 36.0442 11.9014L36.4588 7.8578C36.4694 7.75421 36.5001 7.65374 36.5493 7.56211C36.5985 7.47048 36.6651 7.3895 36.7454 7.32379C36.8257 7.25808 36.9181 7.20892 37.0172 7.17913C37.1164 7.14934 37.2204 7.1395 37.3234 7.15017C37.7563 7.19508 38.0706 7.58486 38.026 8.02078L37.6114 12.0643C37.5916 12.2594 37.5006 12.4401 37.3562 12.5716C37.2117 12.7031 37.0239 12.7761 36.829 12.7765Z" fill="#006634"/>
<path d="M40.5001 13.768C40.4327 13.768 40.3641 13.7592 40.2958 13.7408L36.624 12.7496C36.2035 12.6361 35.9545 12.2009 36.0671 11.7778C36.1799 11.3547 36.6121 11.1034 37.0318 11.217L40.7037 12.2081C41.1238 12.3217 41.3731 12.7568 41.2606 13.18C41.2158 13.3485 41.117 13.4975 40.9795 13.6038C40.842 13.7101 40.6735 13.7678 40.5001 13.768Z" fill="#006634"/>
<path fill-rule="evenodd" clip-rule="evenodd" d="M24.4971 11.4021V33.6745C25.2248 33.4349 26.0064 33.3089 26.8028 33.3089C27.6019 33.3089 28.3568 33.4317 29.0725 33.6593V5.15103C29.0725 3.88693 28.0435 2.85364 26.7848 2.85364C25.5264 2.85364 24.4971 3.88693 24.4971 5.15103V11.4021Z" fill="#339967"/>
<path fill-rule="evenodd" clip-rule="evenodd" d="M24.4971 11.402V30.0709C24.9774 29.9151 25.4785 29.8044 25.9944 29.7506V5.2827C25.9944 4.21334 26.7314 3.30891 27.7212 3.05724C27.4273 2.92232 27.1078 2.85292 26.7848 2.85377C25.526 2.85377 24.4971 3.88696 24.4971 5.15106V11.402Z" fill="#006634"/>
<path d="M87.4551 20.6964L81.6939 8.4607C79.8424 4.5276 75.0039 1.44714 70.6787 1.44714H55.8594L56.0547 50.0828H100V25.1955L87.4551 20.6964Z" fill="#34CC67"/>
<path d="M0 27.9757V50.0828H56.0547V27.9757L28.0273 27.8634L0 27.9757Z" fill="#C07F3A"/>
<path d="M38.0859 50.0828C38.0859 57.408 32.183 63.347 24.9023 63.347C17.6217 63.347 11.7188 57.408 11.7188 50.0828C11.7188 42.7575 17.6217 36.8185 24.9023 36.8185C32.183 36.8185 38.0859 42.7575 38.0859 50.0828Z" fill="#6E3E0B"/>
<path d="M32.2266 50.0828C32.2266 54.1525 28.9473 57.4518 24.9023 57.4518C20.8574 57.4518 17.5781 54.1525 17.5781 50.0828C17.5781 46.0131 20.8574 42.7137 24.9023 42.7137C28.9473 42.7137 32.2266 46.0131 32.2266 50.0828Z" fill="#F5DF87"/>
<path d="M88.2812 50.0828C88.2812 57.408 82.3783 63.347 75.0977 63.347C67.817 63.347 61.9141 57.408 61.9141 50.0828C61.9141 42.7575 67.817 36.8185 75.0977 36.8185C82.3783 36.8185 88.2812 42.7575 88.2812 50.0828Z" fill="#6E3E0B"/>
<path d="M82.4219 50.0828C82.4219 54.1525 79.1426 57.4518 75.0977 57.4518C71.0527 57.4518 67.7734 54.1525 67.7734 50.0828C67.7734 46.0131 71.0527 42.7137 75.0977 42.7137C79.1426 42.7137 82.4219 46.0131 82.4219 50.0828Z" fill="#F5DF87"/>
</g>
<defs>
<clipPath id="clip0_2115_32">
<rect width="100" height="63" fill="white"/>
</clipPath>
</defs>
</svg>
