<svg width="93" height="89" viewBox="0 0 93 89" fill="none" xmlns="http://www.w3.org/2000/svg">
<g clip-path="url(#clip0_2115_106)">
<path d="M84.1042 39.5557H62.4674L34.3105 39.7581V77.3007C34.3105 78.2235 35.0593 78.9715 35.9829 78.9715H66.0717C66.1831 78.9715 66.2911 79.0092 66.3784 79.0782L78.7772 88.8914C79.149 89.1858 79.682 88.8379 79.5617 88.3793L77.2538 79.5903C77.2347 79.5173 77.2325 79.4408 77.2475 79.3669C77.2625 79.2929 77.2943 79.2234 77.3405 79.1636C77.3866 79.1039 77.4459 79.0555 77.5137 79.0222C77.5815 78.9889 77.656 78.9715 77.7315 78.9715H84.1042C85.0278 78.9715 85.7766 78.2235 85.7766 77.3007V41.2265C85.7766 40.3037 85.0278 39.5557 84.1042 39.5557Z" fill="#F5DF87"/>
<path d="M84.1044 39.5557H79.2867V68.6726C79.2867 72.5701 76.1244 75.7295 72.2235 75.7295H34.3105V77.3007C34.3105 78.2235 35.0593 78.9715 35.9829 78.9715H66.0717C66.1831 78.9715 66.2911 79.0091 66.3784 79.0782L78.7772 88.8914C79.149 89.1858 79.682 88.8379 79.5617 88.3793L77.2538 79.5903C77.2347 79.5173 77.2325 79.4408 77.2475 79.3669C77.2625 79.2929 77.2944 79.2234 77.3405 79.1636C77.3866 79.1039 77.4459 79.0555 77.5137 79.0222C77.5815 78.9889 77.656 78.9715 77.7315 78.9715H84.1042C85.0278 78.9715 85.7766 78.2235 85.7766 77.3007V41.2265C85.7767 40.3037 85.028 39.5557 84.1044 39.5557Z" fill="#C07F3A"/>
<path d="M60.8081 0H5.3105C4.24536 0 3.38184 0.859768 3.38184 1.92028V43.3805C3.38184 44.441 4.24536 45.3008 5.3105 45.3008H12.66C12.7472 45.3008 12.8331 45.3207 12.9113 45.3589C12.9895 45.3972 13.0578 45.4528 13.111 45.5215C13.1642 45.5902 13.2009 45.6701 13.2182 45.7551C13.2356 45.8401 13.2331 45.928 13.211 46.0119L10.5494 56.1131C10.4106 56.6402 11.0251 57.04 11.4541 56.7016L25.7534 45.4234C25.8541 45.344 25.9787 45.3008 26.1071 45.3008H60.8081C61.8732 45.3008 62.7367 44.441 62.7367 43.3805V1.92028C62.7369 0.859768 61.8734 0 60.8081 0Z" fill="#F5DF87"/>
<path d="M60.8081 0H55.2519V33.4642C55.2519 37.9435 51.6049 41.5747 47.106 41.5747H3.38184V43.3807C3.38184 44.4412 4.24536 45.3009 5.3105 45.3009H12.66C12.7472 45.301 12.8331 45.3209 12.9113 45.3591C12.9895 45.3974 13.0578 45.453 13.111 45.5217C13.1642 45.5904 13.2009 45.6703 13.2182 45.7553C13.2356 45.8403 13.2331 45.9282 13.211 46.0121L10.5494 56.1133C10.4106 56.6403 11.0251 57.0402 11.4541 56.7018L25.7534 45.4236C25.8541 45.3442 25.9787 45.3009 26.1071 45.3009H60.8082C61.8734 45.3009 62.7369 44.4412 62.7369 43.3807V1.92028C62.7369 0.859768 61.8734 0 60.8081 0Z" fill="#C07F3A"/>
<path fill-rule="evenodd" clip-rule="evenodd" d="M19.944 26.2568C13.8782 17.3636 22.8218 6.0044 41.4126 8.42057C44.2551 8.93716 45.436 10.3574 45.0862 13.0141C42.4841 27.21 26.9153 36.3866 19.9756 26.3066C19.9636 26.2911 19.9558 26.2722 19.9438 26.2567L19.944 26.2568Z" fill="#34CC67"/>
<path fill-rule="evenodd" clip-rule="evenodd" d="M45.0847 12.7409C42.4804 26.8117 27.2116 36.0266 19.8643 26.9441C27.7375 30.3854 39.2027 21.9131 41.4288 9.89115C41.5161 9.21483 41.5088 8.61561 41.3969 8.09082C44.2565 8.62748 45.439 10.0699 45.0848 12.7411L45.0847 12.7409Z" fill="#339967"/>
<path d="M12.7835 31.4645C12.6114 31.4647 12.4419 31.4244 12.2901 31.3471C12.1384 31.2698 12.009 31.158 11.9137 31.0216C11.7601 30.802 11.7043 30.5333 11.7585 30.2745C11.8127 30.0158 11.9726 29.7881 12.2029 29.6414L34.4936 15.45C34.6076 15.3775 34.7355 15.3271 34.87 15.3017C35.0045 15.2763 35.1429 15.2764 35.2774 15.302C35.4119 15.3275 35.5397 15.3781 35.6536 15.4508C35.7675 15.5234 35.8653 15.6168 35.9412 15.7254C36.2611 16.1825 36.1321 16.8002 35.6525 17.1053L13.3618 31.297C13.1907 31.4062 12.9894 31.4645 12.7835 31.4645Z" fill="#006634"/>
<path d="M30.0144 19.7777C29.8575 19.7778 29.7024 19.7518 29.5591 19.7014C29.4157 19.651 29.2873 19.5773 29.1822 19.4851C29.0771 19.3929 28.9976 19.2843 28.9489 19.1662C28.9002 19.0481 28.8834 18.9233 28.8995 18.7997L29.37 15.1796C29.4334 14.6927 29.9844 14.3386 30.5975 14.3885C31.2128 14.4387 31.6592 14.874 31.5964 15.3614L31.1258 18.9815C31.0977 19.1996 30.9686 19.4016 30.7633 19.5487C30.558 19.6958 30.2912 19.7774 30.0144 19.7777Z" fill="#006634"/>
<path d="M34.1482 21.1512C34.0546 21.1511 33.9614 21.1394 33.871 21.1163L29.8896 20.1025C29.3207 19.9575 28.9832 19.4016 29.1354 18.8612C29.2878 18.3208 29.8727 17.9999 30.4416 18.1445L34.4238 19.1586C34.9925 19.3032 35.3301 19.859 35.1773 20.4C35.1166 20.6151 34.9829 20.8053 34.7968 20.9411C34.6108 21.0769 34.3828 21.1507 34.1482 21.1511V21.1512ZM23.6415 24.2727C23.6047 24.2727 23.568 24.2706 23.5301 24.2675C23.2487 24.2395 22.9904 24.1066 22.812 23.898C22.6337 23.6894 22.5498 23.4221 22.5789 23.1549L23.1402 17.99C23.1545 17.8577 23.1961 17.7294 23.2627 17.6123C23.3293 17.4953 23.4195 17.3918 23.5282 17.3079C23.6369 17.224 23.762 17.1612 23.8962 17.1231C24.0305 17.0851 24.1714 17.0725 24.3107 17.0861C24.8968 17.1435 25.3224 17.6414 25.262 18.1982L24.7007 23.3631C24.6738 23.6122 24.5507 23.843 24.3551 24.011C24.1595 24.179 23.9052 24.2722 23.6415 24.2727Z" fill="#006634"/>
<path d="M28.7125 25.1718C28.6197 25.1718 28.5253 25.1626 28.4314 25.1433L23.3771 24.1066C22.7983 23.9878 22.4555 23.5326 22.6105 23.09C22.7658 22.6475 23.3607 22.3845 23.9384 22.5034L28.9927 23.5401C29.571 23.659 29.9142 24.1141 29.7594 24.5568C29.6977 24.733 29.5617 24.8888 29.3724 25C29.1831 25.1112 28.9512 25.1716 28.7125 25.1718Z" fill="#006634"/>
<path d="M50.7568 54.6935C50.823 51.4144 53.1243 49.1494 57.1848 49.1494C60.9675 49.1494 63.4673 51.2433 63.4673 54.2852C63.4673 56.2606 62.5018 57.6433 60.6369 58.7363C58.8778 59.7503 58.3884 60.3956 58.3884 61.6598V62.3577H54.8834L54.857 61.6334C54.685 59.5264 55.4125 58.3412 57.2377 57.2746C58.9439 56.2606 59.4597 55.6285 59.4597 54.4038C59.4597 53.1791 58.4545 52.3099 56.9467 52.3099C55.4257 52.3099 54.4205 53.2449 54.3412 54.6935H50.7568ZM56.7748 68.7182C55.2934 68.7182 54.3676 67.8623 54.3676 66.4796C54.3676 65.0837 55.2934 64.2277 56.7748 64.2277C58.2561 64.2277 59.1687 65.0837 59.1687 66.4796C59.1687 67.8623 58.2561 68.7182 56.7748 68.7182Z" fill="#6E3E0B"/>
</g>
<defs>
<clipPath id="clip0_2115_106">
<rect width="93" height="89" fill="white"/>
</clipPath>
</defs>
</svg>
