<svg width="85" height="72" viewBox="0 0 85 72" fill="none" xmlns="http://www.w3.org/2000/svg">
<g clip-path="url(#clip0_2115_59)">
<path fill-rule="evenodd" clip-rule="evenodd" d="M31.4605 23.0659C39.0285 12.0884 27.8684 -1.93232 4.6606 1.04946C1.11218 1.68712 -0.362038 3.44091 0.0745831 6.7202C3.32301 24.2425 22.7585 35.5697 31.4223 23.1273C31.4366 23.1089 31.4464 23.0849 31.4605 23.0657V23.0659Z" fill="#34CC67"/>
<path fill-rule="evenodd" clip-rule="evenodd" d="M0.0743171 6.72054C3.24472 23.8223 21.832 35.022 30.7772 23.9831C21.1925 28.165 7.2349 17.8632 4.52486 3.25674C4.41778 2.43473 4.42758 1.70627 4.56371 1.0686C1.08253 1.72086 -0.356992 3.474 0.0743171 6.72054Z" fill="#339967"/>
<path d="M39.9876 29.6953C39.735 29.6954 39.4881 29.6222 39.2782 29.485L11.9387 11.6885C11.3505 11.3048 11.1923 10.5277 11.5846 9.95257C11.6778 9.81589 11.7977 9.69849 11.9374 9.60708C12.0771 9.51566 12.2339 9.45203 12.3988 9.4198C12.5636 9.38758 12.7334 9.38741 12.8984 9.41929C13.0633 9.45117 13.2202 9.51448 13.3601 9.60561L40.6996 27.4027C40.9822 27.5871 41.1782 27.8736 41.2446 28.1991C41.311 28.5246 41.2424 28.8626 41.0537 29.1387C40.9369 29.3102 40.7784 29.4508 40.5923 29.5479C40.4063 29.6451 40.1985 29.6957 39.9876 29.6953Z" fill="#006634"/>
<path d="M18.3394 15.6131C18.0227 15.6126 17.7174 15.4975 17.4826 15.29C17.2477 15.0825 17.0999 14.7974 17.0677 14.4897L16.5293 9.38125C16.4568 8.69348 16.9684 8.07852 17.672 8.00766C18.3756 7.93681 19.0041 8.43699 19.0767 9.12476L19.6149 14.2332C19.6869 14.921 19.1753 15.5353 18.4722 15.6063C18.4274 15.6107 18.3834 15.6131 18.3394 15.6131Z" fill="#006634"/>
<path d="M13.5593 16.866C13.2774 16.8654 13.0036 16.7742 12.7802 16.6064C12.5567 16.4386 12.3961 16.2036 12.3232 15.9376C12.1404 15.2701 12.5456 14.5835 13.2284 14.405L18.0092 13.1522C18.6922 12.9731 19.3944 13.3695 19.5774 14.0376C19.7602 14.7051 19.3549 15.3917 18.6719 15.5703L13.8918 16.8231C13.7811 16.8522 13.6694 16.866 13.5593 16.866ZM26.1732 20.7218C25.8565 20.7213 25.5512 20.6062 25.3163 20.3987C25.0814 20.1911 24.9336 19.906 24.9015 19.5983L24.2276 13.2187C24.2102 13.0552 24.2259 12.89 24.2739 12.7325C24.3219 12.575 24.4012 12.4283 24.5073 12.3007C24.6133 12.1732 24.7441 12.0673 24.8921 11.9891C25.0401 11.9109 25.2024 11.862 25.3698 11.8451C26.0714 11.7741 26.7024 12.2738 26.775 12.9615L27.4488 19.3411C27.4673 19.5155 27.4481 19.6918 27.3924 19.8584C27.3368 20.0251 27.2458 20.1785 27.1256 20.3087C27.0053 20.4389 26.8584 20.5429 26.6943 20.6141C26.5302 20.6852 26.3527 20.722 26.1732 20.7218Z" fill="#006634"/>
<path d="M20.2068 22.2859C19.9249 22.2857 19.651 22.1946 19.4275 22.0268C19.204 21.8591 19.0434 21.624 18.9707 21.358C18.927 21.1993 18.9158 21.0337 18.9376 20.8707C18.9595 20.7078 19.014 20.5506 19.0981 20.4082C19.1821 20.2658 19.2941 20.141 19.4276 20.0409C19.561 19.9408 19.7134 19.8673 19.8759 19.8247L25.8442 18.2605C26.0067 18.218 26.1761 18.2073 26.3428 18.2288C26.5096 18.2503 26.6703 18.3037 26.8159 18.3859C26.9615 18.4681 27.0891 18.5775 27.1915 18.7079C27.2938 18.8383 27.3688 18.987 27.4122 19.1457C27.5952 19.8134 27.1898 20.4998 26.5069 20.6785L20.5387 22.2428C20.4279 22.2719 20.3164 22.2859 20.2068 22.2859Z" fill="#006634"/>
<path fill-rule="evenodd" clip-rule="evenodd" d="M53.5392 22.4237C45.9669 11.4462 57.1317 -2.57515 80.3397 0.407271C83.8881 1.04494 85.3624 2.79808 84.9257 6.07736C81.6773 23.6003 62.2419 34.9275 53.5787 22.4852C53.5637 22.466 53.5539 22.4427 53.539 22.4235L53.5392 22.4237Z" fill="#34CC67"/>
<path fill-rule="evenodd" clip-rule="evenodd" d="M84.9246 6.07731C81.7542 23.179 63.1663 34.379 54.2217 23.34C63.8064 27.5226 77.764 17.2252 80.4741 2.61368C80.5803 1.79166 80.5714 1.06337 80.4352 0.425537C83.9164 1.0778 85.3559 2.83093 84.9248 6.07747L84.9246 6.07731Z" fill="#339967"/>
<path d="M45.0114 29.111C44.8003 29.1112 44.5924 29.0604 44.4063 28.9632C44.2202 28.866 44.0616 28.7253 43.9446 28.5537C43.7562 28.2774 43.6878 27.9394 43.7543 27.6139C43.8208 27.2883 44.0168 27.0018 44.2994 26.8173L71.6388 8.96343C71.7786 8.8722 71.9355 8.80878 72.1005 8.77682C72.2654 8.74486 72.4352 8.74497 72.6001 8.77715C72.765 8.80933 72.9218 8.87295 73.0616 8.96436C73.2013 9.05578 73.3211 9.1732 73.4143 9.30991C73.8066 9.88499 73.6484 10.6621 73.0602 11.0459L45.7208 28.9002C45.5109 29.0376 45.264 29.1109 45.0114 29.111Z" fill="#006634"/>
<path d="M66.6594 14.9707C66.4799 14.9708 66.3024 14.9341 66.1384 14.863C65.9744 14.7919 65.8275 14.6879 65.7073 14.5578C65.587 14.4277 65.4961 14.2744 65.4403 14.1078C65.3846 13.9412 65.3653 13.765 65.3837 13.5906L65.9221 8.48218C65.9947 7.79506 66.625 7.29537 67.3266 7.36574C68.0305 7.43659 68.5413 8.05091 68.4694 8.73867L67.9311 13.8471C67.8989 14.1549 67.7511 14.44 67.5163 14.6475C67.2814 14.855 66.9761 14.9702 66.6594 14.9707Z" fill="#006634"/>
<path d="M71.4393 16.2235C71.3269 16.2234 71.2151 16.2089 71.1066 16.1803L66.3267 14.9282C65.6437 14.749 65.2384 14.0624 65.4212 13.3949C65.6042 12.7274 66.3064 12.331 66.9894 12.5097L71.7701 13.7623C72.453 13.9408 72.8582 14.6274 72.6748 15.2956C72.6019 15.5613 72.4414 15.7963 72.2181 15.964C71.9947 16.1317 71.721 16.2228 71.4393 16.2233V16.2235ZM58.8254 20.0791C58.7813 20.0791 58.7373 20.0765 58.6918 20.0726C58.3538 20.0381 58.0438 19.8739 57.8297 19.6163C57.6155 19.3586 57.5149 19.0285 57.5497 18.6984L58.2236 12.3188C58.2408 12.1554 58.2908 11.9969 58.3707 11.8523C58.4507 11.7078 58.559 11.58 58.6895 11.4763C58.82 11.3726 58.9701 11.2951 59.1313 11.2481C59.2925 11.2011 59.4616 11.1856 59.6289 11.2024C60.3325 11.2732 60.8435 11.8882 60.7709 12.576L60.0971 18.9556C60.0648 19.2632 59.917 19.5483 59.6822 19.7558C59.4473 19.9633 59.1421 20.0785 58.8254 20.0791Z" fill="#006634"/>
<path d="M64.7914 21.6433C64.6818 21.6433 64.5702 21.6294 64.4593 21.6004L58.4912 20.0366C57.8077 19.8574 57.403 19.1708 57.5859 18.5033C57.7694 17.8358 58.4718 17.4392 59.154 17.6185L65.1222 19.1821C65.805 19.3615 66.2103 20.0479 66.0275 20.7156C65.9546 20.9815 65.794 21.2165 65.5705 21.3842C65.3471 21.5519 65.0732 21.643 64.7914 21.6433Z" fill="#006634"/>
<path fill-rule="evenodd" clip-rule="evenodd" d="M38.7812 17.9108V53.0504C39.9641 52.6723 41.2345 52.4735 42.5289 52.4735C43.8278 52.4735 45.0548 52.6673 46.2181 53.0264V8.04846C46.2181 6.05407 44.5456 4.42383 42.4997 4.42383C40.4544 4.42383 38.7812 6.05407 38.7812 8.04846V17.9108Z" fill="#339967"/>
<path fill-rule="evenodd" clip-rule="evenodd" d="M38.7812 17.9105V47.3648C39.562 47.119 40.3765 46.9442 41.215 46.8594V8.256C41.215 6.56885 42.4128 5.14192 44.0217 4.74486C43.544 4.532 43.0248 4.4225 42.4997 4.42384C40.4537 4.42384 38.7812 6.05392 38.7812 8.04831V17.9105Z" fill="#006634"/>
<path fill-rule="evenodd" clip-rule="evenodd" d="M11.9814 71.0587H71.9377C71.9377 66.2107 68.0546 62.246 63.1531 61.9579V61.9388C63.1531 56.235 58.4067 51.6087 52.5553 51.6087L52.2934 51.6131C50.7954 49.6237 48.6767 48.1113 46.2189 47.3462C45.0549 46.9821 43.8188 46.7883 42.529 46.7883C41.2568 46.7881 39.9924 46.9828 38.782 47.3654C36.3137 48.1494 34.195 49.6851 32.712 51.6935C32.2649 51.6367 31.8146 51.6084 31.3638 51.6087C25.5079 51.6087 20.766 56.2351 20.766 61.9388V61.9579C15.8652 62.246 11.9814 66.2107 11.9814 71.0587Z" fill="#C07F3A"/>
<path fill-rule="evenodd" clip-rule="evenodd" d="M32.6102 71.0587H11.9814C11.9814 66.2107 15.8652 62.246 20.7667 61.9579V61.9388C20.7667 56.235 25.5079 51.6087 31.3644 51.6087C31.8203 51.6087 32.2709 51.6371 32.712 51.6935C34.9084 48.7213 38.4862 46.7883 42.5296 46.7883C45.0743 46.7883 47.4354 47.5541 49.3843 48.8581C39.5478 51.67 32.465 59.5378 32.465 68.8098C32.465 69.5705 32.5136 70.3171 32.6102 71.0587Z" fill="#6E3E0B"/>
<path d="M76.208 72.3111H7.70967C7.00294 72.3111 6.42969 71.7506 6.42969 71.059C6.42969 70.3681 7.00294 69.8076 7.70967 69.8076H76.2087C76.9156 69.8076 77.4887 70.3681 77.4887 71.059C77.4887 71.7506 76.9156 72.3111 76.208 72.3111Z" fill="#6E3E0B"/>
<path d="M27.4217 67.7553H26.936C26.6773 67.7501 26.4308 67.641 26.2496 67.4516C26.0684 67.2621 25.9669 67.0074 25.9669 66.742C25.9669 66.4767 26.0684 66.222 26.2496 66.0325C26.4308 65.843 26.6773 65.734 26.936 65.7288H27.4217C27.6837 65.7289 27.9349 65.8356 28.1201 66.0256C28.3053 66.2155 28.4093 66.4731 28.4093 66.7417C28.4093 67.3015 27.9672 67.7553 27.4217 67.7553ZM32.8069 57.598H32.3252C31.7797 57.598 31.3376 57.1443 31.3376 56.585C31.3376 56.0257 31.7797 55.572 32.3252 55.572H32.8069C33.353 55.572 33.7951 56.0257 33.7951 56.585C33.7952 56.718 33.7697 56.8498 33.72 56.9727C33.6704 57.0956 33.5976 57.2073 33.5058 57.3014C33.414 57.3955 33.305 57.4701 33.1851 57.521C33.0652 57.5719 32.9367 57.5981 32.8069 57.598ZM25.2849 61.1866H24.8032C24.6734 61.1866 24.5449 61.1603 24.4251 61.1094C24.3052 61.0585 24.1963 60.9839 24.1046 60.8898C24.0128 60.7957 23.9401 60.684 23.8905 60.5611C23.8409 60.4382 23.8154 60.3065 23.8154 60.1735C23.8154 59.9049 23.9194 59.6473 24.1047 59.4573C24.2899 59.2674 24.5412 59.1606 24.8032 59.1606H25.2849C25.547 59.1606 25.7983 59.2673 25.9836 59.4573C26.169 59.6472 26.2731 59.9049 26.2731 60.1736C26.2731 60.4422 26.169 60.6999 25.9836 60.8899C25.7983 61.0798 25.547 61.1866 25.2849 61.1866Z" fill="#C07F3A"/>
<path d="M53.9369 67.7553H54.4191C54.9647 67.7553 55.4069 67.3015 55.4069 66.7417C55.4069 66.4731 55.3029 66.2155 55.1176 66.0255C54.9324 65.8356 54.6811 65.7288 54.4191 65.7288H53.9371C53.3918 65.7288 52.9493 66.1824 52.9493 66.7418C52.9493 67.3015 53.3915 67.7553 53.9369 67.7553Z" fill="#F5DF87"/>
<path d="M48.5512 57.598H49.0334C49.1632 57.598 49.2916 57.5718 49.4115 57.5209C49.5314 57.4699 49.6403 57.3953 49.732 57.3012C49.8237 57.2071 49.8964 57.0955 49.946 56.9726C49.9956 56.8497 50.0211 56.718 50.0211 56.585C50.0211 56.3164 49.9171 56.0588 49.7319 55.8688C49.5466 55.6789 49.2954 55.5721 49.0334 55.572H48.5512C48.0061 55.572 47.5635 56.0257 47.5635 56.585C47.5635 57.1443 48.0058 57.598 48.5512 57.598Z" fill="#F5DF87"/>
<path d="M56.0739 61.1866H56.5554C56.8175 61.1866 57.0689 61.0798 57.2542 60.8899C57.4395 60.6999 57.5436 60.4422 57.5436 60.1736C57.5436 59.9049 57.4395 59.6472 57.2542 59.4573C57.0689 59.2673 56.8175 59.1606 56.5554 59.1606H56.0739C55.8118 59.1606 55.5604 59.2673 55.3751 59.4573C55.1898 59.6472 55.0857 59.9049 55.0857 60.1736C55.0857 60.4422 55.1898 60.6999 55.3751 60.8899C55.5604 61.0798 55.8118 61.1866 56.0739 61.1866Z" fill="#F5DF87"/>
</g>
<defs>
<clipPath id="clip0_2115_59">
<rect width="85" height="72" fill="white"/>
</clipPath>
</defs>
</svg>
