<svg width="82" height="96" viewBox="0 0 82 96" fill="none" xmlns="http://www.w3.org/2000/svg">
<path fill-rule="evenodd" clip-rule="evenodd" d="M0.51805 32.4932C8.42987 36.3191 16.6681 41.7011 22.2249 38.0888C23.4652 37.2756 24.3667 36.3884 24.9755 35.453C30.5205 26.9615 11.7595 14.9674 0.461331 31.3269C0.268117 31.6069 -0.107201 32.2449 0.51805 32.4932Z" fill="#34CC67"/>
<path fill-rule="evenodd" clip-rule="evenodd" d="M9.22238 24.0909C16.2698 23.5609 22.3541 28.4601 22.0737 33.3731C22.0152 34.3658 21.7048 35.358 21.0858 36.306C20.47 37.2397 19.5668 38.1341 18.3281 38.9401C18.1404 39.0596 17.9487 39.1724 17.7533 39.2782C19.3691 39.3129 20.873 38.9648 22.2245 38.0877C23.4648 37.2746 24.3664 36.3874 24.9751 35.452C29.2192 28.9457 19.2164 20.3972 9.22238 24.0909Z" fill="#339967"/>
<path fill-rule="evenodd" clip-rule="evenodd" d="M43.2904 28.8395C54.3857 27.6213 54.5955 13.9261 57.6294 1.66426C57.6531 1.56979 57.6585 1.47145 57.6451 1.37486C57.6317 1.27828 57.5998 1.18534 57.5513 1.10135C57.5028 1.01737 57.4387 0.943984 57.3625 0.885391C57.2863 0.826798 57.1995 0.784144 57.1072 0.759866C49.2012 -1.31172 38.3997 0.82112 33.1493 7.54345C25.399 17.4829 28.4635 25.8935 36.2616 28.2855C38.3162 28.9166 40.6932 29.127 43.2904 28.8395Z" fill="#34CC67"/>
<path fill-rule="evenodd" clip-rule="evenodd" d="M51.9003 0.0168457C48.8565 12.2994 48.6643 26.0477 37.5474 27.2682C37.1681 27.3104 36.7878 27.3432 36.4069 27.3664C35.601 27.4088 34.7933 27.4017 33.9883 27.3453C34.689 27.7241 35.4517 28.0397 36.2625 28.2852C38.3169 28.9165 40.6942 29.1269 43.2911 28.8394C54.3867 27.6213 54.5962 13.9254 57.6304 1.66302C57.654 1.56835 57.6592 1.46984 57.6457 1.37312C57.6321 1.27639 57.6001 1.18335 57.5514 1.0993C57.5027 1.01524 57.4384 0.941832 57.3619 0.883255C57.2855 0.824678 57.1986 0.782082 57.1061 0.7579C55.4723 0.328401 53.7124 0.0843453 51.9003 0.0168457Z" fill="#339967"/>
<path fill-rule="evenodd" clip-rule="evenodd" d="M48.0481 41.4811C49.0747 42.7951 50.5149 44.0387 52.4149 45.165C60.9177 50.1804 69.4848 35.9523 79.5241 29.2562C80.0297 28.919 80.0017 28.1454 79.476 27.842C58.6035 15.7946 39.7152 30.8236 48.0481 41.4811Z" fill="#34CC67"/>
<path fill-rule="evenodd" clip-rule="evenodd" d="M48.9082 42.4589C49.8353 43.4132 50.9997 44.3204 52.417 45.1652C60.9197 50.1806 69.4869 35.9525 79.5262 29.2564C80.0315 28.9194 80.005 28.1462 79.4796 27.843C78.4638 27.2561 77.422 26.7177 76.3576 26.2295C74.4806 27.1447 71.217 30.8051 67.1337 34.3012C61.2348 39.3383 56.1173 45.7204 48.9082 42.4589Z" fill="#339967"/>
<path fill-rule="evenodd" clip-rule="evenodd" d="M4.37276 57.6453C14.5731 59.8722 25.5392 63.769 31.0084 58.0177C32.2406 56.7311 33.05 55.4373 33.5076 54.1793C37.6917 42.7033 12.5057 34.013 3.79657 56.4345C3.66864 56.7641 3.64314 57.4476 4.37276 57.6453Z" fill="#34CC67"/>
<path fill-rule="evenodd" clip-rule="evenodd" d="M12.1123 45.3818C20.1806 42.7798 28.58 46.7763 29.5727 52.577C29.7699 53.7487 29.6713 54.9922 29.2067 56.2643C28.7491 57.5295 27.9324 58.8233 26.7074 60.1099C26.5195 60.3042 26.3246 60.4912 26.123 60.6707C28.017 60.2465 29.6785 59.42 31.0091 58.0184C32.2413 56.7318 33.0507 55.438 33.5084 54.1799C36.7048 45.4104 22.7576 38.2656 12.1123 45.3818Z" fill="#339967"/>
<path d="M54.8745 34.7097C54.7531 34.362 54.5017 34.078 54.1756 33.92C53.8496 33.762 53.4756 33.7431 53.1359 33.8673C50.1611 34.9557 43.183 38.8025 40.5078 44.7545C39.7867 42.9273 38.8567 41.1147 37.6592 39.3244C37.6569 39.3204 37.6551 39.3161 37.6529 39.3121C33.3786 32.0408 36.8388 21.2266 39.9767 17.216C40.1965 16.9272 40.2963 16.5615 40.2547 16.1979C40.213 15.8344 40.0331 15.5022 39.754 15.2734C39.4749 15.0446 39.1189 14.9374 38.7632 14.9752C38.4075 15.013 38.0807 15.1926 37.8534 15.4753C35.8854 17.9908 34.1256 22.2892 33.3704 26.4264C32.9708 28.6149 32.726 31.3797 33.126 34.2614C29.4924 31.7019 24.8008 31.4499 20.5613 31.4499C20.2006 31.4499 19.8546 31.5966 19.5995 31.8577C19.3445 32.1188 19.2012 32.4729 19.2012 32.8422C19.2012 33.2114 19.3445 33.5655 19.5995 33.8266C19.8546 34.0877 20.2006 34.2344 20.5613 34.2344C25.0802 34.2344 30.1549 34.525 33.1855 37.9958C38.0065 43.5102 39.5559 49.2742 40.0487 55.2769C35.5768 50.7641 27.9089 49.4237 24.8964 49.341C24.1447 49.3156 23.5204 49.9269 23.5002 50.6954C23.4954 50.8782 23.5258 51.0601 23.5897 51.2309C23.6536 51.4016 23.7497 51.5578 23.8726 51.6905C23.9955 51.8232 24.1427 51.9298 24.3058 52.0043C24.4689 52.0788 24.6448 52.1196 24.8234 52.1245C29.0178 52.2397 38.2007 54.4754 40.2657 60.6297C40.2772 61.7563 40.2712 68.2185 40.2712 68.2185C40.2712 68.4014 40.3063 68.5824 40.3747 68.7513C40.443 68.9202 40.5432 69.0737 40.6695 69.203C40.7958 69.3323 40.9458 69.4348 41.1108 69.5048C41.2758 69.5748 41.4527 69.6108 41.6313 69.6107C41.8099 69.6108 41.9868 69.5748 42.1518 69.5048C42.3169 69.4348 42.4668 69.3323 42.5931 69.203C42.7194 69.0737 42.8196 68.9202 42.888 68.7513C42.9563 68.5824 42.9915 68.4014 42.9914 68.2185C42.9914 68.2185 42.9923 64.4915 42.9932 64.0387C42.9953 62.9629 43.0045 60.9829 42.9803 60.1949C42.9384 57.1467 42.7832 54.0797 42.2469 51.0286C42.2507 50.9457 42.2473 50.8626 42.2366 50.7803C41.2729 43.6012 49.7805 38.052 54.0517 36.4895C54.3914 36.3652 54.6689 36.1078 54.8232 35.774C54.9775 35.4403 54.996 35.0574 54.8745 34.7097Z" fill="#006634"/>
<path fill-rule="evenodd" clip-rule="evenodd" d="M9.53125 94.5296H75.6731C75.6731 88.8382 71.2468 84.1838 65.6596 83.8456V83.8231C65.6596 77.1271 60.2493 71.696 53.5793 71.696L53.2806 71.7011C51.5731 69.3657 49.158 67.5902 46.3563 66.692C45.0296 66.2645 43.6205 66.0371 42.1503 66.0371C39.4055 66.0052 38.8464 66.2474 37.8013 66.6744C34.9876 67.5949 32.6504 69.4378 30.9599 71.7955C30.4503 71.7289 29.9369 71.6957 29.423 71.696C22.748 71.696 19.5447 77.1273 19.5447 83.8231V83.8456C13.9584 84.1838 9.53125 88.8382 9.53125 94.5296Z" fill="#C07F3A"/>
<path fill-rule="evenodd" clip-rule="evenodd" d="M18.7324 94.5302H7.3291C7.3291 88.8388 11.0667 84.3771 16.5643 82.6244C17.2853 73.584 24.0896 71.6006 28.3542 70.8411C28.3542 70.8411 30.0057 68.587 32.7583 67.46C36.1872 66.0562 40.3645 66.0669 40.3645 66.0669C34.4471 66.9259 31.0635 71.3588 30.1778 73.8412C25.7736 75.3492 21.92 79.8572 21.92 86.0558C18.4444 88.3098 18.2124 93.8891 18.7324 94.5302Z" fill="#6E3E0B"/>
<path d="M80.5402 96H2.45905C1.65345 96 1 95.342 1 94.5301C1 93.719 1.65345 93.061 2.45905 93.061H80.541C81.3467 93.061 82 93.719 82 94.5301C82 95.342 81.3467 96 80.5402 96Z" fill="#6E3E0B"/>
<path d="M41.3774 81.834C37.785 82.5479 36.6765 84.0199 35.7858 85.2026C34.9384 86.3279 34.326 87.1412 30.9328 87.3323C30.7665 87.3416 30.6036 87.3844 30.4535 87.4582C30.3033 87.5321 30.1689 87.6354 30.0577 87.7624C29.9466 87.8894 29.861 88.0376 29.8059 88.1984C29.7507 88.3593 29.727 88.5297 29.7362 88.6999C29.7453 88.8702 29.7871 89.0369 29.8593 89.1906C29.9314 89.3442 30.0323 89.4819 30.1564 89.5956C30.2805 89.7094 30.4252 89.797 30.5824 89.8534C30.7395 89.9099 30.906 89.9342 31.0723 89.9248C35.2906 89.6875 36.5659 88.4199 37.7951 86.7878C38.5539 85.7801 39.2094 84.9098 41.861 84.3828C42.0245 84.3503 42.1802 84.2852 42.3191 84.1911C42.458 84.0971 42.5775 83.9759 42.6706 83.8346C42.7638 83.6933 42.8289 83.5345 42.8621 83.3675C42.8953 83.2004 42.8961 83.0283 42.8644 82.861C42.7307 82.1572 42.0652 81.6968 41.3774 81.834ZM59.9591 86.7525C59.7781 86.0601 59.0828 85.6493 58.4061 85.8334C56.5345 86.3454 54.941 86.1989 53.7983 85.4095C53.076 84.9106 52.5246 84.1412 52.1832 83.1787C53.0043 83.0922 53.9321 82.8717 54.999 82.4657C55.3143 82.3458 55.5701 82.1025 55.7102 81.7894C55.8503 81.4763 55.8631 81.1191 55.7459 80.7964C55.6879 80.6365 55.5997 80.49 55.4863 80.365C55.373 80.2401 55.2367 80.1392 55.0852 80.0682C54.9337 79.9972 54.7701 79.9575 54.6036 79.9512C54.4372 79.945 54.2711 79.9724 54.115 80.0318C52.7008 80.5702 51.6886 80.7039 50.8422 80.5959C50.7893 80.5845 50.7358 80.5766 50.6819 80.5724C49.802 80.4252 49.0934 80.0152 48.2704 79.5392C46.7282 78.6471 44.8078 77.5371 41.3859 78.1917C41.2222 78.223 41.0661 78.2871 40.9266 78.3801C40.787 78.4732 40.6668 78.5935 40.5726 78.7341C40.4785 78.8748 40.4124 79.033 40.378 79.1998C40.3436 79.3667 40.3417 79.5388 40.3723 79.7064C40.4029 79.8739 40.4654 80.0337 40.5563 80.1765C40.6473 80.3194 40.7648 80.4425 40.9022 80.5388C41.0396 80.6352 41.1942 80.7029 41.3572 80.7381C41.5201 80.7733 41.6883 80.7753 41.852 80.7439C44.3651 80.263 45.597 80.9753 47.0225 81.7998C47.7616 82.2271 48.5408 82.6776 49.4846 82.9547C49.9148 84.9407 50.9228 86.5558 52.3793 87.5619C53.2346 88.1527 54.5351 88.7314 56.3477 88.7314C57.1498 88.7314 58.0525 88.618 59.0609 88.3423C59.386 88.2534 59.6632 88.0359 59.8316 87.7378C60.0001 87.4397 60.0459 87.0853 59.9591 86.7525ZM33.7713 79.1525C34.6392 78.8339 35.3293 78.3495 35.984 77.8876C37.2907 76.9653 38.4191 76.1688 41.2755 76.7156C41.4392 76.7469 41.6073 76.7449 41.7703 76.7097C41.9333 76.6746 42.0879 76.6069 42.2253 76.5105C42.3627 76.4142 42.4802 76.2911 42.5712 76.1482C42.6621 76.0054 42.7247 75.8456 42.7553 75.6781C42.7859 75.5105 42.784 75.3384 42.7496 75.1716C42.7152 75.0047 42.6491 74.8465 42.555 74.7058C42.4608 74.5652 42.3406 74.4449 42.201 74.3518C42.0615 74.2587 41.9054 74.1947 41.7417 74.1634C37.848 73.4183 36.0163 74.7111 34.5441 75.7499C33.9307 76.1827 33.3884 76.5643 32.7144 76.7658C32.587 76.7763 32.4619 76.8065 32.3434 76.8554C31.4727 77.015 31.4619 76.8829 29.7579 76.2343C29.1015 75.9836 28.3713 76.3264 28.127 76.9985C28.0689 77.1583 28.0422 77.3283 28.0483 77.4987C28.0544 77.669 28.0932 77.8365 28.1626 77.9915C28.2319 78.1466 28.3304 78.2861 28.4525 78.4021C28.5745 78.5182 28.7176 78.6085 28.8738 78.6679C30.016 79.1028 29.8892 79.3447 30.7376 79.4488C30.1545 80.1758 29.1641 80.8285 27.2115 81.3932C26.8907 81.4895 26.62 81.7114 26.4582 82.0108C26.2965 82.3103 26.2567 82.6629 26.3476 82.9922C26.4385 83.3215 26.6527 83.6007 26.9436 83.7692C27.2346 83.9377 27.5787 83.9818 27.9013 83.892C31.834 82.7543 33.0243 81.081 33.7713 79.1525ZM41.5504 73.193C44.2758 73.3442 46.1531 73.8711 46.564 74.1797C46.7811 74.3433 47.0436 74.4315 47.3132 74.4314C47.5807 74.4317 47.8414 74.3454 48.0581 74.1848C48.2748 74.0243 48.4364 73.7978 48.5197 73.5376C48.6031 73.2774 48.6039 72.997 48.5221 72.7363C48.4404 72.4756 48.2801 72.248 48.0644 72.0862C46.5151 70.9227 42.4807 70.6441 41.6877 70.6001C41.5213 70.5907 41.3548 70.615 41.1976 70.6716C41.0405 70.7282 40.8957 70.8159 40.7717 70.9298C40.6477 71.0437 40.5469 71.1815 40.475 71.3353C40.403 71.4891 40.3614 71.6559 40.3526 71.8262C40.3343 72.1701 40.4503 72.5072 40.675 72.7635C40.8996 73.0198 41.2145 73.1743 41.5504 73.193Z" fill="#F5DF87"/>
<path d="M42.8882 88.6371C42.8882 89.3555 42.32 89.9353 41.6199 89.9353C40.9198 89.9353 40.3516 89.3555 40.3516 88.6371C40.3441 86.5875 40.2686 66.0649 40.2686 66.0649C40.6896 66.0459 41.1972 66.0369 41.6199 66.0369C42.0426 66.0369 42.9913 66.0649 42.9913 66.0649C42.9913 66.0649 42.9052 84.9301 42.8882 88.6371Z" fill="#F5DF87"/>
</svg>
