<svg width="1920" height="341" viewBox="0 0 1920 341" fill="none" xmlns="http://www.w3.org/2000/svg">
<g clip-path="url(#clip0_2225_761)">
<path d="M145.104 5.49899C182.456 5.49899 211.804 8.16698 233.148 13.503C254.937 18.3943 270.5 27.2877 279.838 40.183C289.621 52.6337 294.512 70.4203 294.512 93.543C294.512 117.11 288.954 135.119 277.837 147.57C266.72 159.576 248.044 166.691 221.809 168.914V171.582C253.38 173.805 275.391 182.476 287.842 197.595C300.737 212.269 307.185 232.724 307.185 258.959C307.185 281.637 302.071 299.424 291.844 312.319C282.061 325.214 266.72 334.33 245.821 339.666C224.922 344.557 197.797 347.003 164.447 347.003C135.988 347.003 110.865 346.781 89.076 346.336C67.2873 346.336 47.055 345.891 28.379 345.002C10.1477 344.557 -8.52833 343.89 -27.649 343.001L-18.311 267.63C-8.08366 268.075 11.4817 268.519 40.385 268.964C69.733 268.964 104.195 268.964 143.77 268.964C154.887 268.964 163.558 268.075 169.783 266.296C176.008 264.517 180.455 261.182 183.123 256.291C185.791 250.955 187.125 243.618 187.125 234.28C187.125 220.94 183.79 212.047 177.12 207.6C170.895 203.153 159.333 200.93 142.436 200.93L-18.978 200.93L-18.978 139.566L142.436 139.566C152.663 139.566 160.667 138.899 166.448 137.565C172.229 135.786 176.231 132.674 178.454 128.227C181.122 123.78 182.456 117.777 182.456 110.218C182.456 102.659 181.122 96.878 178.454 92.876C175.786 88.874 171.339 85.9837 165.114 84.205C158.889 82.4263 150.218 81.537 139.101 81.537C115.089 81.537 93.9673 81.537 75.736 81.537C57.5047 81.0923 40.8297 81.0923 25.711 81.537C10.5923 81.537 -4.08166 81.9816 -18.311 82.871L-27.649 9.50099C-10.307 8.167 6.59034 7.27766 23.043 6.83297C39.9403 6.38831 58.1717 6.16598 77.737 6.16598C97.3023 5.72132 119.758 5.49899 145.104 5.49899ZM86.408 9.50099L86.408 343.001H-27.649L-27.649 9.50099L86.408 9.50099ZM705.374 9.50099V341L597.32 342.334V192.259C597.32 182.476 597.764 173.138 598.654 164.245C599.543 154.907 600.655 144.68 601.989 133.563H599.321C596.208 142.901 591.984 152.684 586.648 162.911C581.756 173.138 576.865 181.809 571.974 188.924L468.589 341L361.869 341L361.869 9.50099L469.923 9.50099V166.246C469.923 174.695 469.478 182.921 468.589 190.925C467.699 198.929 466.588 207.822 465.254 217.605H467.922C471.034 208.267 474.814 199.818 479.261 192.259C483.707 184.255 488.376 176.473 493.268 168.914L599.321 9.50099L705.374 9.50099ZM1102.95 9.50099V85.539L966.884 85.539C949.542 85.539 939.537 94.6547 936.869 112.886C931.089 149.793 924.419 181.809 916.859 208.934C909.3 235.614 899.962 259.404 888.845 280.303C877.729 301.202 863.944 321.435 847.491 341L755.445 341C771.009 312.541 783.682 284.305 793.464 256.291C803.247 228.277 811.029 200.485 816.809 172.916C823.035 145.347 828.148 117.555 832.15 89.541C835.708 63.3057 845.046 43.518 860.164 30.178C875.283 16.3933 897.294 9.50099 926.197 9.50099L1102.95 9.50099ZM839.487 337.665L830.816 433.046L750.776 433.046L750.776 337.665L839.487 337.665ZM1165.65 260.293V341L750.776 341V260.293L1165.65 260.293ZM1165.65 337.665V433.046H1084.94L1076.94 337.665H1165.65ZM1110.96 9.50099V341H996.899V9.50099L1110.96 9.50099ZM1378.64 0.162975C1438.22 0.162975 1480.69 9.94565 1506.03 29.511C1531.38 49.0763 1544.28 77.9797 1544.72 116.221C1545.16 146.903 1536.49 169.359 1518.71 183.588C1501.37 197.817 1470.91 204.932 1427.33 204.932L1245.24 204.932V144.235H1393.31C1407.99 144.235 1417.32 142.012 1421.33 137.565C1425.77 133.118 1428 125.114 1428 113.553C1428 100.658 1424.44 91.9867 1417.32 87.54C1410.65 83.0933 1399.09 80.87 1382.64 80.87C1367.08 80.4253 1355.07 82.204 1346.62 86.206C1338.62 90.208 1333.06 98.212 1329.95 110.218C1326.83 122.224 1325.28 140.233 1325.28 164.245C1325.28 188.257 1327.06 206.711 1330.61 219.606C1334.62 232.501 1341.51 241.617 1351.29 246.953C1361.52 252.289 1375.75 254.957 1393.98 254.957C1408.65 254.957 1427.55 254.512 1450.67 253.623C1474.24 252.289 1498.92 250.288 1524.71 247.62L1535.38 320.99C1521.15 328.105 1505.37 333.663 1488.03 337.665C1471.13 341.667 1453.56 344.557 1435.33 346.336C1417.1 348.115 1398.87 349.004 1380.64 349.004C1336.62 349.004 1301.04 342.779 1273.92 330.328C1247.24 317.877 1227.9 298.979 1215.89 273.633C1204.33 247.842 1198.55 215.604 1198.55 176.918C1198.55 133.341 1204.55 98.6567 1216.56 72.866C1228.56 47.0753 1247.68 28.6217 1273.92 17.505C1300.6 5.94365 1335.5 0.162975 1378.64 0.162975ZM1764.23 0.162975C1807.81 0.162975 1842.71 5.94365 1868.95 17.505C1895.19 28.6217 1914.08 47.0753 1925.64 72.866C1937.21 98.212 1942.99 132.451 1942.99 175.584C1942.99 218.272 1937.21 252.289 1925.64 277.635C1914.08 302.536 1895.19 320.768 1868.95 332.329C1842.71 343.446 1807.81 349.004 1764.23 349.004C1721.1 349.004 1686.41 343.446 1660.18 332.329C1633.94 320.768 1614.82 302.536 1602.82 277.635C1591.26 252.289 1585.47 218.272 1585.47 175.584C1585.47 132.451 1591.26 98.212 1602.82 72.866C1614.82 47.0753 1633.94 28.6217 1660.18 17.505C1686.41 5.94365 1721.1 0.162975 1764.23 0.162975ZM1764.23 84.872C1750.89 84.872 1740.44 87.3177 1732.88 92.209C1725.32 97.1003 1719.99 105.994 1716.87 118.889C1713.76 131.784 1712.2 150.683 1712.2 175.584C1712.2 200.041 1713.76 218.717 1716.87 231.612C1719.99 244.507 1725.32 253.401 1732.88 258.292C1740.44 262.739 1750.89 264.962 1764.23 264.962C1778.02 264.962 1788.69 262.739 1796.25 258.292C1803.81 253.401 1808.92 244.507 1811.59 231.612C1814.7 218.717 1816.26 200.041 1816.26 175.584C1816.26 150.683 1814.7 131.784 1811.59 118.889C1808.92 105.994 1803.81 97.1003 1796.25 92.209C1788.69 87.3177 1778.02 84.872 1764.23 84.872Z" fill="#F6F9F6"/>
</g>
<defs>
<clipPath id="clip0_2225_761">
<rect width="2028" height="341" fill="white" transform="translate(-76)"/>
</clipPath>
</defs>
</svg>
