<svg width="202" height="149" viewBox="0 0 202 149" fill="none" xmlns="http://www.w3.org/2000/svg">
<g opacity="0.2">
<path d="M99.4529 148.571C126.141 137.203 144.989 109.459 144.989 77.0371C144.989 34.4907 112.532 0 72.4943 0C32.4568 0 0 34.4907 0 77.0371C0 109.459 18.848 137.203 45.5356 148.571H99.4529Z" fill="#34CC67"/>
<path d="M99.0395 148.572C112.663 139.276 121.69 123.034 121.69 104.551C121.69 75.6801 99.6655 52.2758 72.4972 52.2758C45.3289 52.2758 23.3047 75.6801 23.3047 104.551C23.3047 123.034 32.3311 139.276 45.9549 148.572H99.0395Z" fill="#339967"/>
<path d="M178.667 148.572C192.524 140.696 201.951 125.169 201.951 107.302C201.951 81.4703 182.245 60.5295 157.936 60.5295C133.628 60.5295 113.922 81.4703 113.922 107.302C113.922 125.169 123.349 140.696 137.206 148.572H178.667Z" fill="#34CC67"/>
<path d="M169.937 148.571C178.308 142.656 183.825 132.542 183.825 121.058C183.825 102.824 169.915 88.0425 152.756 88.0425C135.598 88.0425 121.688 102.824 121.688 121.058C121.688 132.542 127.205 142.656 135.576 148.571H169.937Z" fill="#339967"/>
<path d="M162.077 148.572C165.9 144.803 168.293 139.418 168.293 133.439C168.293 122.043 159.599 112.804 148.875 112.804C138.151 112.804 129.457 122.043 129.457 133.439C129.457 139.418 131.85 144.803 135.673 148.572H162.077Z" fill="#006634"/>
<path d="M93.0411 148.572C99.4915 142.522 103.56 133.67 103.56 123.809C103.56 105.575 89.6498 90.7933 72.4909 90.7933C55.3319 90.7933 41.4219 105.575 41.4219 123.809C41.4219 133.67 45.4902 142.522 51.9406 148.572H93.0411Z" fill="#006634"/>
</g>
</svg>
