<svg width="32" height="32" viewBox="0 0 32 32" fill="none" xmlns="http://www.w3.org/2000/svg">
<path fill-rule="evenodd" clip-rule="evenodd" d="M15.9998 0C7.17737 0 0 7.17737 0 15.9999C0 24.8226 7.17737 32 15.9998 32C24.8223 32 31.9999 24.8226 31.9999 15.9999C32 7.17737 24.8223 0 15.9998 0Z" fill="#339967"/>
<path fill-rule="evenodd" clip-rule="evenodd" d="M13.9027 20.2724L12.4483 21.7268C11.9719 22.2033 11.3368 22.4671 10.66 22.4689H10.6514C9.97953 22.4689 9.35184 22.2112 8.88303 21.7421C8.4119 21.2713 8.15396 20.6401 8.15628 19.9649C8.15865 19.2883 8.4219 18.6533 8.89896 18.1769L12.5892 14.4857C13.0657 14.0093 13.7007 13.7457 14.3776 13.7439H14.3862C15.058 13.7439 15.6857 14.0013 16.1551 14.4707C16.4988 14.8139 16.732 15.2487 16.8299 15.7275C16.9133 16.1332 17.3096 16.395 17.715 16.3118C18.1207 16.2289 18.3825 15.8324 18.2993 15.4262C18.1439 14.6621 17.767 13.9606 17.2155 13.4093C16.4632 12.6575 15.4587 12.2439 14.387 12.2439H14.3726C13.2968 12.2474 12.287 12.6669 11.5288 13.4249L7.83765 17.1164C7.07934 17.8744 6.66015 18.8844 6.65628 19.9599C6.65246 21.0375 7.06696 22.0476 7.82259 22.8026C8.60153 23.5821 9.62571 23.9712 10.6514 23.9712C11.685 23.9712 12.7202 23.5761 13.5094 22.7875L14.9632 21.3331C15.2565 21.0407 15.2565 20.5657 14.9632 20.2724C14.6701 19.98 14.1952 19.98 13.9027 20.2724ZM24.1733 9.202C25.7371 10.7658 25.7371 13.3094 24.1733 14.8731L20.507 18.5395C19.7251 19.3214 18.6983 19.712 17.6714 19.712C16.6445 19.712 15.6177 19.3214 14.8358 18.5395C14.2839 17.9882 13.9089 17.2918 13.7494 16.5276C13.6651 16.1219 13.9257 15.7246 14.3313 15.6408C14.7364 15.5562 15.1338 15.8163 15.2182 16.2219C15.3165 16.6981 15.5522 17.1351 15.8962 17.4788C16.875 18.4576 18.4677 18.4576 19.4465 17.4788L23.1125 13.8127C24.0913 12.8339 24.0913 11.2413 23.1125 10.2628C22.6405 9.79075 22.0108 9.53131 21.3377 9.53131C20.6643 9.53131 20.0337 9.79075 19.5626 10.2628L18.1183 11.7071C17.8249 11.9995 17.3506 11.9995 17.0575 11.7071C16.7645 11.414 16.7645 10.9388 17.0575 10.6463L18.5018 9.202C19.2568 8.44694 20.2637 8.03125 21.3377 8.03125C22.4115 8.03125 23.4183 8.44694 24.1733 9.202Z" fill="white"/>
</svg>
