<svg width="32" height="32" viewBox="0 0 32 32" fill="none" xmlns="http://www.w3.org/2000/svg">
<g clip-path="url(#clip0_2383_13814)">
<path d="M16 32C24.8366 32 32 24.8366 32 16C32 7.16344 24.8366 0 16 0C7.16344 0 0 7.16344 0 16C0 24.8366 7.16344 32 16 32Z" fill="#FF9800"/>
<path d="M15.9984 7.57886C15.1582 7.57886 14.3368 7.82802 13.6381 8.29485C12.9395 8.76167 12.3949 9.42518 12.0734 10.2015C11.7518 10.9778 11.6677 11.832 11.8316 12.6561C11.9956 13.4802 12.4002 14.2372 12.9943 14.8314C13.5885 15.4255 14.3455 15.8301 15.1696 15.9941C15.9937 16.158 16.8479 16.0739 17.6242 15.7523C18.4005 15.4308 19.064 14.8862 19.5309 14.1876C19.9977 13.4889 20.2468 12.6675 20.2468 11.8273C20.2471 11.2693 20.1374 10.7167 19.924 10.2012C19.7106 9.68558 19.3977 9.21713 19.0031 8.82257C18.6086 8.42802 18.1401 8.11509 17.6246 7.90169C17.109 7.68828 16.5564 7.57858 15.9984 7.57886ZM15.9984 13.9452C15.5795 13.9452 15.1701 13.821 14.8218 13.5882C14.4735 13.3555 14.202 13.0248 14.0417 12.6378C13.8814 12.2508 13.8395 11.8249 13.9212 11.4141C14.0029 11.0033 14.2047 10.6259 14.5008 10.3297C14.797 10.0335 15.1744 9.8318 15.5852 9.75008C15.9961 9.66836 16.4219 9.7103 16.8089 9.8706C17.1959 10.0309 17.5267 10.3024 17.7594 10.6506C17.9921 10.9989 18.1163 11.4084 18.1163 11.8273C18.1166 12.1055 18.062 12.381 17.9557 12.6381C17.8493 12.8952 17.6933 13.1288 17.4966 13.3255C17.2999 13.5222 17.0663 13.6782 16.8092 13.7845C16.5522 13.8909 16.2766 13.9455 15.9984 13.9452Z" fill="white"/>
<path d="M22.2588 16.7262C22.1663 16.5611 22.0422 16.4158 21.8935 16.2986C21.7448 16.1815 21.5744 16.0948 21.3922 16.0436C21.2099 15.9924 21.0194 15.9776 20.8314 16.0001C20.6434 16.0226 20.4618 16.0819 20.2967 16.1747C17.4041 17.7957 14.5915 17.7957 11.6988 16.1747C11.533 16.082 11.3505 16.023 11.1618 16.0009C10.9731 15.9788 10.7819 15.9941 10.5991 16.0459C10.4163 16.0977 10.2455 16.185 10.0965 16.3028C9.94742 16.4207 9.82304 16.5667 9.73043 16.7326C9.63781 16.8984 9.57877 17.0809 9.55668 17.2696C9.5346 17.4583 9.54989 17.6495 9.6017 17.8323C9.70633 18.2015 9.95331 18.5139 10.2883 18.701C11.2373 19.2395 12.2511 19.6548 13.3052 19.9368L11.2588 21.9831C10.99 22.2519 10.839 22.6166 10.839 22.9968C10.839 23.377 10.99 23.7416 11.2588 24.0104C11.5277 24.2793 11.8923 24.4303 12.2725 24.4303C12.6527 24.4303 13.0174 24.2793 13.2862 24.0104L15.9978 21.2883L18.7094 23.9999C18.9782 24.2687 19.3429 24.4198 19.7231 24.4198C20.1033 24.4198 20.4679 24.2687 20.7367 23.9999C21.0056 23.7311 21.1566 23.3664 21.1566 22.9862C21.1566 22.606 21.0056 22.2414 20.7367 21.9726L18.6904 19.9262C19.7445 19.6443 20.7583 19.229 21.7073 18.6904C21.8727 18.5979 22.0183 18.4737 22.1356 18.3248C22.2529 18.1759 22.3397 18.0054 22.3909 17.8229C22.4422 17.6404 22.4569 17.4496 22.4342 17.2614C22.4115 17.0732 22.352 16.8913 22.2588 16.7262Z" fill="white"/>
</g>
<defs>
<clipPath id="clip0_2383_13814">
<rect width="32" height="32" fill="white"/>
</clipPath>
</defs>
</svg>
