<svg width="32" height="32" viewBox="0 0 32 32" fill="none" xmlns="http://www.w3.org/2000/svg">
<g clip-path="url(#clip0_2383_13822)">
<path d="M15.9999 31.9997C24.8363 31.9997 31.9997 24.8363 31.9997 15.9999C31.9997 7.16338 24.8363 0 15.9999 0C7.16338 0 0 7.16338 0 15.9999C0 24.8363 7.16338 31.9997 15.9999 31.9997Z" fill="#55ACEE"/>
<path d="M25.8011 11.4987C25.1031 11.808 24.3626 12.0108 23.6044 12.1003C24.4031 11.6226 25.0009 10.8707 25.2863 9.98483C24.5356 10.4303 23.7142 10.7441 22.8577 10.9126C22.4998 10.5309 22.0672 10.2268 21.5869 10.0191C21.1066 9.81142 20.5887 9.70462 20.0655 9.70533C17.9537 9.70533 16.241 11.418 16.241 13.5297C16.241 13.8295 16.275 14.1213 16.3406 14.4014C13.1622 14.2419 10.344 12.7195 8.45759 10.405C8.11742 10.9886 7.93866 11.6523 7.93964 12.3279C7.93964 13.6544 8.61531 14.8255 9.64093 15.5111C9.03357 15.4924 8.43957 15.3282 7.90884 15.0322L7.90855 15.0807C7.90855 16.9338 9.22738 18.4793 10.9766 18.8304C10.6483 18.92 10.3095 18.9651 9.96921 18.9648C9.72222 18.9648 9.48293 18.9411 9.24962 18.8966C9.7362 20.4156 11.1483 21.5214 12.8222 21.5525C11.4674 22.6158 9.79424 23.1924 8.07198 23.1896C7.76395 23.1896 7.45877 23.1716 7.16016 23.136C8.90849 24.26 10.9436 24.8566 13.0221 24.8544C20.0566 24.8544 23.9036 19.0269 23.9036 13.9727C23.9036 13.807 23.8999 13.6418 23.8924 13.4781C24.6415 12.9373 25.2878 12.267 25.8011 11.4987Z" fill="#F1F2F2"/>
</g>
<defs>
<clipPath id="clip0_2383_13822">
<rect width="32" height="32" fill="white"/>
</clipPath>
</defs>
</svg>
