<svg xmlns="http://www.w3.org/2000/svg" version="1.1" xmlns:xlink="http://www.w3.org/1999/xlink" xmlns:svgjs="http://svgjs.dev/svgjs" width="1170" height="1170"><svg width="1170" height="1170" viewBox="0 0 1170 1170" fill="none" xmlns="http://www.w3.org/2000/svg">
<path d="M576.392 964.68C721.404 906.553 823.817 764.691 823.817 598.908C823.817 381.359 647.458 205 429.908 205C212.359 205 36 381.359 36 598.908C36 764.691 138.413 906.553 283.425 964.68H576.392Z" fill="#34CC67"></path>
<path d="M574.142 964.681C648.169 917.151 697.215 834.1 697.215 739.594C697.215 591.971 577.543 472.299 429.92 472.299C282.297 472.299 162.625 591.971 162.625 739.594C162.625 834.1 211.671 917.151 285.698 964.681H574.142Z" fill="#339967"></path>
<path d="M1006.81 964.687C1082.11 924.413 1133.33 845.02 1133.33 753.664C1133.33 621.58 1026.25 514.505 894.17 514.505C762.087 514.505 655.012 621.58 655.012 753.664C655.012 845.02 706.235 924.413 781.528 964.687H1006.81Z" fill="#34CC67"></path>
<path d="M959.38 964.683C1004.87 934.438 1034.84 882.722 1034.84 824.004C1034.84 730.769 959.26 655.187 866.025 655.187C772.789 655.187 697.207 730.769 697.207 824.004C697.207 882.722 727.185 934.438 772.67 964.683H959.38Z" fill="#339967"></path>
<path d="M916.651 964.676C937.427 945.406 950.429 917.872 950.429 887.3C950.429 829.028 903.19 781.789 844.917 781.789C786.645 781.789 739.406 829.028 739.406 887.3C739.406 917.872 752.408 945.406 773.184 964.676H916.651Z" fill="#006634"></path>
<path d="M541.559 964.676C576.608 933.742 598.714 888.483 598.714 838.06C598.714 744.825 523.132 669.242 429.896 669.242C336.66 669.242 261.078 744.825 261.078 838.06C261.078 888.483 283.184 933.742 318.233 964.676H541.559Z" fill="#006634"></path>
</svg><style>@media (prefers-color-scheme: light) { :root { filter: none; } }
@media (prefers-color-scheme: dark) { :root { filter: none; } }
</style></svg>